<?xml version="1.0" encoding="UTF-8"?><svg id="a" xmlns="http://www.w3.org/2000/svg" viewBox="0 0 576.86 536.92"><path d="M48.74,360.39c-1.34-2.2-3.07-4.25-3.96-6.62-6.75-17.91-13.67-35.76-19.89-53.86-8.98-26.12-17.42-52.44-22.11-79.77-.53-3.06-.61-6.19-1.13-9.25-.17-1.02-1.08-11.27-1.65-12.23,0-12.55,1.03-13.66,1.03-26.21,.59-.95,2.02-14.63,2.21-15.66,2.84-15.06,7.35-18.13,16.68-30.14,5.44-7,11.95-13.34,18.71-19.12,11.98-10.24,24.81-19.6,39.43-25.64,18.09-7.48,36.5-14.23,54.99-20.66,10.5-3.65,21.43-6.03,32.17-8.98l1.59-.86c.24,1.54,.42,3.1,.72,4.63,1.23,6.28,3.06,12.28,8.03,16.78,3.79,6.14,8.75,11.22,15.39,14.01,3.78,1.58,4.88,3.67,4.14,7.32-3.99,1.92-7.99,3.84-11.98,5.76-9.72,6.11-18.4,12.94-18.44,25.93-.32,1.81-.91,3.63-.91,5.44-.02,23.86,.04,47.73,.08,71.59-1.11,11.61,.63,22.54,7.58,32.26l-1.93,.18c-5.04-7.19-7.66-15.17-7.68-23.94-.04-22.81,.05-45.61-.04-68.42-.04-10.58,.35-21.07,3.54-31.39-31.24,28.62-56.8,61.39-74.76,100.75,2.64,0,4.5-.19,6.3,.03,9.46,1.16,17.67,4.34,21.15,14.28,1.4,4,2.39,8.15,3.57,12.24,1.62,5.61,3.44,10.63,9.03,14.23,8.37,5.39,11.06,14.35,8.11,22.62-.45,1.27-1.77,2.22-2.69,3.32,.49-3.74,.97-7.48,1.46-11.22-.18-.54-.35-1.07-.53-1.61-2.22-3.16-3.9-6.96-6.78-9.31-4.21-3.44-7.45-7.19-8.92-12.42-1.23-4.36-2.31-8.77-3.76-13.06-3.24-9.59-8.8-13.54-19.03-13.86-.56-.03-1.12-.06-1.67-.09-7.46-.53-10.15,1.92-11.32,10.28-.39,.16-1.04,.23-1.12,.48-2.22,6.75-4.38,13.53-6.89,21.38,3.38-1.3,5.52-2.12,7.65-2.94-2.4,1.66-4.81,3.31-7.21,4.97-.97-.55-1.99-1.66-2.89-1.56-7.91,.86-15.56,2.73-22.37,7.04-5.87,3.71-6.33,8.5-1.43,12.57,.21,.13,.3,.31,.27,.55l.82,1.11c7.85,8.21,8.96,17.48,4.53,27.74-1.5,3.47-2.61,7.11-3.9,10.67-.12,.64-.24,1.28-.36,1.92,1.19,2.25,1.8,5.49,3.67,6.6,9.28,5.48,14.08,13.77,16.51,23.84-9.76-.52-17.36,2.72-21.32,12.28-.89,2.01-1.79,4.02-2.68,6.02Z" style="fill:#ebebf4;"/><path d="M136.01,279.01c.92-1.1,2.24-2.06,2.69-3.32,2.94-8.27,.26-17.23-8.11-22.62-5.59-3.6-7.41-8.61-9.03-14.23-1.18-4.08-2.17-8.23-3.57-12.24-3.48-9.95-11.69-13.12-21.15-14.28-1.8-.22-3.66-.03-6.3-.03,17.96-39.36,43.52-72.13,74.76-100.75-3.19,10.32-3.58,20.81-3.54,31.39,.09,22.81,0,45.61,.04,68.42,.02,8.77,2.64,16.76,7.68,23.94-3.69,1.44-7.58,2.52-10.98,4.45-1.94,1.11-3.08,3.62-4.58,5.5l.14,2.18-.02-.04,.88,1.75-.03-.04,.88,.92-.05-.04,1.62,1.1h-.08c3.62,1.91,7.07,4.39,10.91,5.63,4.91,1.59,10.14,2.17,15.23,3.19-4.58,11.94-9.17,23.87-13.72,35.81-7.3,19.13-14.47,38.31-21.96,57.36-1.29,3.27-.65,4.19,2.36,5.49,3.25,1.41,4.25,.14,5.23-2.5,7.95-21.3,15.95-42.58,23.91-63.88,1-2.67,2.37-4.61,5.43-5.34,4.28-1.01,8.56-2.22,12.63-3.85,3.97-1.6,7.68-1.45,11.59-.09,3.62,1.26,7.27,2.54,11.01,3.33,4.39,.94,6.77,3.23,7.88,7.67,.87,3.47,2.84,6.67,4.32,9.99-.47,1.02-.84,2.1-1.43,3.05-10.73,17.54-21.42,35.11-32.3,52.55-2.22,3.57-5.11,6.74-7.83,9.97-2.79,3.32-5.21,6.72-4.71,11.38-2.71,1.38-1.8,3.38-.45,4.87,1.08,1.19,2.74,2.23,4.3,2.55,12.12,2.49,24.26,4.88,36.43,7.09,3.09,.56,4.39-1.11,3.27-4.23,2.5-7.87,.44-11.19-7.76-12.11-2.46-.28-4.98-.04-8.36-.04,1.28-3.27,1.61-6.46,3.37-8.21,9.46-9.41,19.27-18.47,28.96-27.65,1.9,4.37,3.98,8.68,5.64,13.14,.98,2.63,1.87,3.66,4.86,2.41,2.93-1.22,3.99-2.44,2.63-5.62-2.21-5.18-4.04-10.51-6.04-15.78,1.13-.79,2.52-1.38,3.36-2.41,4.3-5.26,8.6-10.52,12.62-15.99,6.3-8.55,12.64-17.11,15.81-27.49,.41-1.34,1.37-2.51,2.08-3.77,.72,27.57,1.44,55.14,2.19,82.71,.05,1.82,.36,3.64,.56,5.46-1.45,5.03-2.85,10.06-.78,15.27,.85,5.6,3.05,7.43,8.37,5.59,11.08-3.83,21.98-8.18,32.95-12.33,4.69-1.78,4.87-2.42,2.07-6.93-2.57-7.38-3.68-8.8-8.34-7.59-3.96,1.03-7.57,3.41-11.4,5.23-.72-1.81-1.6-4-2.47-6.19,.21-1.55,.33-3.11,.64-4.64,6.48-31.13,11.79-62.43,12.79-94.29,.37-11.82,.28-23.69-3.72-35.08-1.76-5.03-4.61-8.98-9.88-11.05-9.73-3.82-19.34-7.94-28.99-11.93,2.36-6.85,5.11-13.61,6.93-20.6,1.07-4.12,3.07-4.74,6.81-4.73,44.77,.12,89.54,.08,134.31,.08,10.84,0,21.67,.08,32.51-.05,2.89-.04,4.19,.75,4.93,3.8,2.11,8.67,4.73,17.22,7.11,25.83,7.37,26.66,14.71,53.33,22.08,79.99,6.92,25.02,13.92,50.01,20.76,75.05,2.71,9.92,2.53,9.88,12.02,7.17,2.2-.63,2.66-1.34,2.05-3.55-4.08-14.75-7.96-29.56-12.01-44.32-7.39-26.94-14.85-53.87-22.3-80.79-5.44-19.68-10.86-39.38-16.44-59.02-.92-3.23-.43-4.24,3.11-4.17,10.98,.2,21.96,.09,32.94,.11,3.28,5.45,6.62,10.87,9.83,16.36,9.26,15.82,19.13,31.33,27.53,47.6,9.84,19.06,18.33,38.78,22.2,60.16,3.14,17.34,2.63,34.35-2.59,51.27-5.36,17.37-14.27,32.59-25.32,46.99-11.72,15.28-26.03,27.65-40.34,40.23-18.7,16.44-39.95,28.97-61.04,41.88-26.12,15.99-53.93,28.07-82.98,37.46-18.78,6.07-38.02,9.42-57.81,7.97-18.14-1.33-35.36-6.73-52.04-13.64-8.92-3.69-17.37-8.51-26.01-12.86-2.03-1.02-3.96-2.24-5.94-3.36,.29-.01,.58-.02,.87-.04,8.08-.97,16.15-1.94,24.88-2.99-7.58-4.71-14.18-9.04-20.99-12.98-25.33-14.66-47.69-33.18-68.51-53.53-12.27-11.99-23.71-24.86-35.15-37.67-5.17-5.79-9.42-12.39-14.09-18.62,1.98,0,3.98-.18,5.95,.03,12.19,1.27,18.34-5.94,20.07-16.48,.39-2.35-1.17-5.01-1.83-7.53-2.58-9.9-8.5-14.55-18.56-14.62-3.68-.03-7.37-.13-11.05-.19,4.34-6.21,9.41-11.16,17.69-11.45,3.62-.13,7-1.37,8.59-5.2l.6-1.82c2.2-6,.74-11.45-2.73-16.46-2.75-3.97-3.75-8.07-1.11-12.32,3.34-5.38,7-10.57,10.52-15.84Z" style="fill:#f9f7fe;"/><path d="M267.94,47.12c.91-.73,1.72-1.91,2.74-2.14,12.55-2.79,25.03-6.11,37.73-7.99,19.91-2.95,39.73-1.1,58.78,5.3,9.62,3.23,19.01,7.61,27.8,12.69,18.14,10.47,34.36,23.58,49.02,38.57,1.14,1.16,1.89,2.71,2.82,4.08-3.61-1.46-6.72-4.54-11.12-3.44-.46-.65-.86-1.79-1.4-1.87-2.7-.39-5.43-.67-8.16-.67-26.28-.05-52.56-.04-78.84,0-2.01,0-4.53-.7-4.91,2.55l-1.7,.02c-3.02-.15-5.11,.82-5.14,4.27h0c-3.82,1.08-5.43,3.9-3.42,5.99v2.56c-.87,1.22-2.46,2.43-2.47,3.65-.16,17.81-.16,35.63,0,53.44,.01,1.23,1.59,2.45,2.44,3.67,.29,1.12,.58,2.24,.87,3.37-8.49,.05-16.99-.04-25.47,.26-1.84,.07-3.63,1.54-5.44,2.36l-7.83-.1c-1.07-1.42-2.14-2.85-3.21-4.27l-1.23-.65c-1.36-.28-2.71-.56-4.07-.84,9.74-17.74,19.49-35.48,29.21-53.23,1.01-1.85,1.83-3.8,2.75-5.7,1.46-3.22,2.92-6.45,4.38-9.67,2.88-3.17,3.18-8.23,.46-10.79-1.39-1.31-3.11-2.44-4.08,.55-5.86,4.16-7.22,10.79-9.34,17.01-3.25,4.53-6.56,9.03-9.73,13.61-5.35,7.74-10.61,15.54-15.91,23.31-.63,0-1.25-.02-1.88-.02l-2.53-2.56c-3.04-4.05-5.94-8.22-9.2-12.09-1.03-1.23-3-1.67-4.54-2.47-2.87-2.76-5.74-5.52-8.62-8.29-1.48-4.14-4.05-7.11-8.59-7.94-.56-.49-1.12-.98-1.68-1.47-.67-3.31-2.5-5.3-6.05-5.37l-.78-.69c-.65-1.18-1.09-2.58-2-3.51-5.73-5.86-12.73-8.5-20.94-7.85,.62-.91,1.04-2.31,1.89-2.66,11.54-4.82,17.57-14.26,21.64-25.4,.58-1.51,1.16-3.01,1.74-4.52,3.26-1.45,6.51-2.94,9.8-4.33,5.39-2.28,10.8-4.49,16.21-6.73Z" style="fill:#f9f7fe;"/><path d="M221.72,506.68c-.29,.01-.58,.02-.87,.04-6.85,.28-13.69,.56-20.54,.85-18.71-.3-36.86-3.67-53.43-12.42-9.19-4.85-17.82-11.12-25.76-17.87-7.85-6.67-15.2-14.2-21.52-22.33-10.53-13.54-20.47-27.57-27.87-43.22-4.26-9.01-9.08-17.75-13.54-26.67-1.07-2.14-1.72-4.49-2.56-6.75,5.31,2.94,11.09,2.66,16.87,2.6,7.5-.09,15-.02,22.5-.02,1.94,2.75,3.86,5.51,5.83,8.23,5.74,7.93,10.82,16.47,17.37,23.65,14.71,16.13,29.79,31.97,45.41,47.21,16.8,16.38,35.68,30.29,55.14,43.39,1.19,.8,1.97,2.19,2.94,3.3Z" style="fill:#eaeaf4;"/><path d="M515.34,186.65c-10.98-.01-21.96,.1-32.94-.11-3.54-.07-4.02,.94-3.11,4.17,5.58,19.65,10.99,39.34,16.44,59.02,7.45,26.93,14.9,53.85,22.3,80.79,4.05,14.76,7.94,29.57,12.01,44.32,.61,2.2,.15,2.92-2.05,3.55-9.49,2.71-9.31,2.75-12.02-7.17-6.84-25.04-13.84-50.03-20.76-75.05-7.37-26.66-14.71-53.33-22.08-79.99-2.38-8.61-5-17.16-7.11-25.83-.74-3.05-2.04-3.83-4.93-3.8-10.83,.13-21.67,.05-32.51,.05-44.77,0-89.54,.04-134.31-.08-3.74,0-5.73,.61-6.81,4.73-1.82,6.99-4.57,13.75-6.93,20.6-3.93-1.26-7.85-2.51-11.78-3.76,2.23-6.95,4.47-13.91,6.89-21.43h-27.6c-2.96-.04-5.91-.1-8.87-.1q-9.67-.01-9.87-9.84c0-.42-.06-.84-.1-1.26,1.44-.5,2.87-1.4,4.32-1.43,13.18-.21,26.36-.27,39.54-.37,6.85,.06,13.7,.11,20.55,.17,2.25,3.34,5.62,.9,8.37,1.62,.53,3.41,2.97,3.59,5.74,3.61,13.96,.09,27.92,.38,41.88,.41,27.65,.07,55.3,.04,82.95,0,5.74,0,11.02-1.18,14.2-6.71,.81,.88,1.65,2.55,2.43,2.53,5.63-.17,11.5,1.62,16.81-1.67,4.92,.04,9.84,.25,14.74,.03,2.42-.11,4.8-1.02,7.19-1.57,1.47,.57,2.94,1.6,4.42,1.63,9.25,.15,18.51,.21,27.76,.02,3.37-.07,4.79,.66,4.7,4.41-.19,8.38,0,8.39-9.51,8.51Z" style="fill:#dedede;"/><path d="M241.94,58.18c-.58,1.51-1.16,3.01-1.73,4.52-.43-.73-1.19-1.43-1.24-2.18-.29-4.46-.14-8.96-.68-13.38-.44-3.56-1.57-6.96-6.66-5.74-1.39,.33-3.08-.36-4.59-.74-6.47-1.65-12.89-3.51-19.4-5.03-11.74-2.73-16.22-.56-21.99,9.82-1.45,2.62-3.62,4.84-5.09,6.77l-5.37-5.56c-1.03,2.34-2.09,4.66-3.05,7.02-.2,.49-.13,1.15-.03,1.69,1.14,5.81,2.31,11.62,3.47,17.42-4.97-4.5-6.8-10.5-8.03-16.78-.3-1.53-.48-3.08-.72-4.63-.13-7.38,1.14-14.44,4.68-21.03,.57-1.05,.56-2.45,.69-3.69,.73-7.37,5.7-12.48,12.8-14.38,4.28-1.14,8.27-3.41,12.32-5.32,4.34-2.05,8.45-4.7,12.94-6.29,4.89-1.74,7.52-.18,10.41,4.14,1.39,2.06,3.02,4.48,5.14,5.43,6.84,3.08,11.18,8.41,14.81,14.59,.56,3.69,2.61,7.08,.27,11.23-.95,1.69,1,5.01,1.63,7.59-.19,4.84-.38,9.67-.57,14.51Z" style="fill:#030302;"/><path d="M466.03,173.63c-5.32,3.29-11.18,1.51-16.81,1.67-.79,.02-1.62-1.64-2.43-2.53,.88-2.82,2.48-5.64,2.52-8.47,.22-18.11,.21-36.22,.05-54.33-.07-8.02-6.24-14-14.27-14.02-29.1-.08-58.2-.08-87.3,.02-4.95,.02-9.11,2.03-11.63,6.62-.78,2.94-2.2,5.87-2.23,8.82-.22,17.03-.2,34.07-.05,51.1,.02,2.89,1.03,5.78,1.58,8.67l-2.44-.02c-.29-1.12-.58-2.24-.87-3.37,0-20.25,.01-40.51,.02-60.76,0-.85,0-1.71,.01-2.56,1.14-2,2.28-3.99,3.42-5.99h0c1.71-1.42,3.43-2.85,5.14-4.27,.57,0,1.13-.01,1.7-.02,31.1,0,62.21,0,93.31,0,4.4-1.1,7.51,1.97,11.12,3.44,1.14,1.42,2.28,2.85,3.42,4.27,.57,4.32,1.77,8.67,1.62,12.96-.73,19.56,2.28,39.29-1.84,58.61h12.49c-.43-1.09-1.01-1.87-1.01-2.65-.08-8.54-.13-17.08,.05-25.62,.02-.76,1.72-2.02,2.73-2.13,2.85-.29,5.76-.1,8.64-.1-.39-1.42-.86-1.91-1.43-2.19-4.84-2.34-5.15-2.93-2.04-6.89,2.16-2.75,1.37-4.72-.97-6.49-2.48-1.88-1.47-3.03,.62-4.11,5.28,1.36,10.77,2.21,15.79,4.23,4.9,1.97,3.22,4.19,1.79,8.9-1.77,5.82-6.89,2.8-9.74,6.56,3.69,0,6.79-.11,9.87,.08,.75,.04,1.45,1.04,2.17,1.6-7.54-.04-15.09,0-22.63-.17-2.57-.06-3.52,.73-3.45,3.38,.15,6.4-.22,12.83,.18,19.21,.14,2.24,1.92,4.38,2.95,6.56Z" style="fill:#e9e8ef;"/><path d="M469.11,123.3c-2.09,1.08-3.1,2.23-.62,4.11,2.34,1.77,3.13,3.74,.97,6.49-3.11,3.96-2.81,4.55,2.04,6.89,.57,.28,1.04,.77,1.43,2.19-2.88,0-5.79-.19-8.64,.1-1.01,.1-2.71,1.36-2.73,2.13-.18,8.54-.13,17.08-.05,25.62,0,.78,.58,1.56,1.01,2.65h-12.49c4.12-19.32,1.11-39.05,1.84-58.61,.16-4.3-1.04-8.64-1.62-12.96,2.69,2.54,5.62,4.87,8.02,7.66,3.8,4.42,7.24,9.14,10.83,13.73Z" style="fill:#f9f7fe;"/><path d="M466.03,173.63c-1.03-2.18-2.81-4.32-2.95-6.56-.4-6.38-.02-12.8-.18-19.21-.06-2.65,.88-3.44,3.45-3.38,7.54,.17,15.09,.13,22.63,.17,.29,2.16-1.25,5.37,3.01,5.27,3.95,2.92,4.75,6.58,2.6,10.95-3.36,1.9-7.12,3.55-5.53,8.62-.04,.3-.09,.59-.13,.89-.32,.57-.65,1.14-.97,1.71-2.4,.55-4.78,1.47-7.19,1.57-4.9,.22-9.83,0-14.74-.03Zm22.2-17.08c.81,1.28,1.52,2.4,2.22,3.51,.89-1.28,2.51-2.59,2.46-3.84-.04-1.26-1.74-2.46-2.71-3.68-.6,1.21-1.19,2.41-1.98,4.01Z" style="fill:#6c62fe;"/><path d="M241.94,58.18c.19-4.84,.38-9.67,.57-14.51,8.48,1.15,16.96,2.3,25.43,3.44-5.4,2.24-10.82,4.45-16.21,6.73-3.29,1.39-6.53,2.88-9.8,4.33Z" style="fill:#e9e8ef;"/><path d="M494.61,160.87c2.14-4.36,1.34-8.03-2.6-10.95,3.35-.46,4.72,1.84,5.15,4.4,.4,2.43,1.14,5.49-2.55,6.55Z" style="fill:#e9e8ef;"/><path d="M488.94,170.38c.04-.3,.09-.59,.13-.89,.06,.22,.14,.44,.16,.66,0,.07-.19,.15-.29,.23Z" style="fill:#dedede;"/><path d="M95.02,380.89c-7.5,0-15-.07-22.5,.02-5.78,.07-11.57,.35-16.87-2.6-4.17-5.26-7.01-11.02-6.91-17.92,.89-2.01,1.79-4.02,2.68-6.02-.04,.71,0,1.43-.12,2.13-1.88,10.41,7.12,22.13,19.54,21.18,11.44-.87,23-.09,34.51-.04,.55,1.09,1.1,2.17,1.65,3.26-3.99,0-7.99,0-11.98,0Z" style="fill:#dad9e6;"/><path d="M268.77,208.11c3.93,1.25,7.85,2.51,11.78,3.76,9.66,3.99,19.27,8.11,28.99,11.93,5.28,2.07,8.12,6.02,9.88,11.05,3.99,11.4,4.09,23.27,3.72,35.08-1,31.86-6.31,63.16-12.79,94.29-.32,1.53-.43,3.09-.64,4.64-1.76,.38-3.6,.56-5.28,1.16-5.07,1.84-10.09,3.84-15.12,5.78-.19-1.82-.51-3.64-.56-5.46-.75-27.57-1.47-55.14-2.19-82.71-.2-9.1-.35-18.2-.7-27.29-.03-.83-1.3-2.19-2.14-2.32-3.42-.5-6.91-.62-11.2-.94,3.28,4.69,5.98,8.84,8.97,12.76,3.66,4.8,4.31,9.97,2.96,15.72-2.75,11.66-9.25,21.28-16.37,30.55-5.18,6.75-10.58,13.32-15.89,19.96-2.2,2.36-4.39,4.71-6.59,7.07-9.69,9.18-19.5,18.23-28.96,27.65-1.76,1.75-2.09,4.93-3.37,8.21,3.39,0,5.9-.23,8.36,.04,8.2,.92,10.27,4.24,7.76,12.11-10.72-1.75-21.49-3.22-32.13-5.38-3.98-.81-7.63-3.22-11.42-4.9-.5-4.65,1.91-8.06,4.71-11.38,2.72-3.23,5.6-6.41,7.83-9.97,10.88-17.45,21.57-35.01,32.3-52.55,.58-.95,.96-2.03,1.43-3.05,1.4-2.69,2.8-5.38,4.2-8.07,2.31-3.43,4.67-6.83,6.83-10.35,.14-.23-1.12-1.47-1.86-2.07-3.62-2.94-7.28-5.82-10.93-8.73-4.34-3.35-8.67-6.7-13.01-10.05-1.42-1.34-2.85-2.68-4.27-4.02l-2.56-2c-1.92-1.86-3.74-3.86-5.81-5.54-1.84-1.49-3.88-3.58-5.97-3.76-11.17-.95-19.96-6.08-27.3-14.19-6.95-9.71-8.69-20.65-7.58-32.26,28.01,0,56.02-.01,84.04-.02,.67,.85,1.23,2.32,2.02,2.45,6.27,1.08,12.58,1.91,18.87,2.81Z" style="fill:#3a4476;"/><path d="M247.88,202.84c-28.01,0-56.02,.01-84.04,.02-.04-23.87-.1-47.73-.08-71.59,0-1.81,.59-3.63,.91-5.44,1.41,.82,3.09,1.39,4.2,2.51,4.29,4.34,8.22,9.03,12.6,13.26,8.88,8.57,18.5,16.44,26.81,25.52,5.97,6.53,12.16,10.05,20.94,8.36,.03,.42,.09,.84,.1,1.26q.2,9.83,9.87,9.84c2.96,0,5.91,.07,8.87,.1-.06,5.39-.12,10.78-.18,16.17Z" style="fill:#4558db;"/><path d="M175.56,72.81c-1.16-5.81-2.33-11.61-3.47-17.42-.11-.55-.17-1.2,.03-1.69,.96-2.36,2.03-4.69,3.05-7.02l5.37,5.56c1.48-1.93,3.64-4.16,5.09-6.77,5.77-10.38,10.25-12.55,21.99-9.82,6.5,1.51,12.93,3.38,19.4,5.03,1.51,.39,3.2,1.08,4.59,.74,5.09-1.22,6.22,2.18,6.66,5.74,.55,4.42,.39,8.92,.68,13.38,.05,.75,.81,1.45,1.24,2.18-4.07,11.14-10.1,20.58-21.64,25.4-.85,.36-1.27,1.75-1.89,2.66,0,.77-.02,1.55-.03,2.32-.07,1.41-.06,2.83-.23,4.22-.73,5.87-5.25,9.87-10.89,9.71-5.43-.15-9.66-4.25-10.25-9.94-.1-.98-.12-1.97-.17-2.96,.74-3.64-.37-5.73-4.14-7.32-6.64-2.78-11.6-7.86-15.39-14.01Z" style="fill:#f9a37b;"/><path d="M229.22,175.47c-8.78,1.69-14.97-1.83-20.94-8.36-8.31-9.08-17.92-16.95-26.81-25.52-4.38-4.23-8.32-8.92-12.6-13.26-1.11-1.12-2.78-1.69-4.2-2.51,.04-12.99,8.72-19.83,18.44-25.93,.59,1.09,1.03,2.3,1.8,3.25,6.83,8.48,13.75,16.88,20.57,25.37,5.92,7.38,11.72,14.86,17.64,22.24,.77,.96,1.84,1.99,2.96,2.32,7.32,2.16,14.69,4.14,22.05,6.18,8.34,2.56,16.68,5.11,25.02,7.67-.02,2.25-.04,4.5-.06,6.75-13.18,.1-26.36,.16-39.54,.37-1.45,.02-2.88,.93-4.32,1.43Z" style="fill:#354dc4;"/><path d="M105.35,377.63c-11.51-.05-23.07-.83-34.51,.04-12.42,.95-21.42-10.77-19.54-21.18,.13-.69,.08-1.42,.12-2.13,3.96-9.55,11.55-12.8,21.32-12.27,5.97,0,11.94,0,17.92,0,.62,.01,1.23,.02,1.85,.03,3.32,0,6.63-.02,9.95-.03,3.68,.07,7.36,.16,11.05,.19,10.06,.07,15.98,4.72,18.56,14.62-.05,1.42-.07,2.85-.14,4.27-.33,6.66-7.25,16.49-16.31,16.31-3.41-.07-6.83,.09-10.25,.15Z" style="fill:#8845f3;"/><path d="M248.13,159.25c-7.36-2.04-14.73-4.02-22.05-6.18-1.13-.33-2.19-1.36-2.96-2.32-5.92-7.38-11.72-14.86-17.64-22.24-6.82-8.49-13.74-16.89-20.57-25.37-.76-.95-1.2-2.16-1.8-3.25,3.99-1.92,7.99-3.84,11.98-5.76,.06,.99,.07,1.97,.17,2.96,.59,5.69,4.82,9.79,10.25,9.94,5.64,.16,10.16-3.85,10.89-9.71,.17-1.4,.16-2.81,.23-4.22,4.22,.64,8.7,.59,12.57,2.1,3.79,1.48,6.95,4.56,10.39,6.94,.26,.23,.52,.46,.78,.69,.93,1.04,1.86,2.08,2.79,3.12l.96,1.03,.04-.12c1.08,3.76,2.7,7.46,3.1,11.29,.71,6.75,.67,13.57,.94,20.37-.03,6.91-.06,13.82-.09,20.73Z" style="fill:#4557db;"/><path d="M52.91,309.74c1.29-3.56,2.4-7.2,3.9-10.67,4.43-10.26,3.32-19.53-4.53-27.74l-.82-1.11c.02-.24-.07-.43-.27-.55-.22-1.99-.43-3.97-.65-5.96,16.29-.04,31.36,4.47,45.38,12.53,1.36,.78,2.41,3.42,2.35,5.15-.3,9.05-1,18.09-1.57,27.14-.17,2.68-.78,4.55-4.13,2.79-1.47-.77-3.23-1.37-4.87-1.39-11.6-.16-23.2-.14-34.8-.18Z" style="fill:#13c75b;"/><path d="M136.01,279.01c-3.52,5.27-7.18,10.46-10.52,15.84-2.64,4.24-1.64,8.34,1.11,12.32,3.47,5,4.94,10.45,2.73,16.45-10.76-2.75-21.51-2.6-32.23,.54-.17-.82-.35-1.24-.32-1.64,.84-9.88,1.67-19.76,2.59-29.63,.1-1.09,.46-2.32,1.11-3.16,9.38-12.27,21.37-20.19,37-21.94-.49,3.74-.97,7.48-1.46,11.23Z" style="fill:#13c75b;"/><path d="M98.45,217.52c10.23,.32,15.79,4.27,19.03,13.86,1.45,4.29,2.53,8.7,3.76,13.06,1.47,5.23,4.71,8.98,8.92,12.42,2.88,2.35,4.56,6.16,6.78,9.31-15.01,.84-25.93,9.52-36.43,19.52-.22-.9-.38-1.27-.39-1.66-.57-22.17-1.12-44.35-1.68-66.52Z" style="fill:#13c75b;"/><path d="M77.89,251.61c2.4-1.66,4.81-3.31,7.21-4.97,.49-2,1.42-4.01,1.39-6-.08-4.32-.65-8.62-1.03-12.94,1.16-8.36,3.86-10.81,11.32-10.28,.69,18.95,1.38,37.91,2.11,58.08-15.64-8.7-30.88-13.62-47.46-13.57,2.66-1.72,5.11-4.02,8.01-5.04,6.02-2.12,12.29-3.56,18.45-5.28Z" style="fill:#13c75b;"/><path d="M90.65,342.09c-5.97,0-11.94,0-17.92,0-2.43-10.07-7.23-18.36-16.51-23.84-1.87-1.1-2.48-4.34-3.67-6.6,5.09-.35,10.19-.6,15.26-1.06,8.55-.78,16.89,.01,25.08,2.66,2.55,.82,3.31,2.16,2.75,4.76-1.74,8.01-3.33,16.05-4.98,24.08Z" style="fill:#13c75b;"/><path d="M171.42,235.11c7.34,8.11,16.13,13.24,27.3,14.19,2.09,.18,4.14,2.27,5.97,3.76,2.07,1.68,3.88,3.68,5.81,5.54-.63,.25-1.26,.71-1.9,.73-12.66,.37-25.28-.09-37.62-3.15-4.7-1.17-9.15-3.38-13.71-5.11h.08c-.54-.36-1.08-.72-1.62-1.09l.05,.04c-.29-.31-.59-.62-.88-.92l.03,.04-.88-1.75,.02,.04c-.05-.73-.09-1.45-.14-2.18,1.5-1.88,2.64-4.39,4.58-5.5,3.4-1.94,7.29-3.02,10.98-4.45l1.93-.18Z" style="fill:#f35f45;"/><path d="M90.65,342.09c1.65-8.03,3.24-16.07,4.98-24.08,.57-2.6-.2-3.94-2.75-4.76-8.19-2.65-16.53-3.44-25.08-2.66-5.08,.46-10.17,.72-15.26,1.06,.12-.64,.24-1.28,.36-1.92,11.6,.04,23.2,.03,34.8,.18,1.64,.02,3.4,.62,4.87,1.39,3.35,1.76,3.96-.11,4.13-2.79,.57-9.04,1.27-18.08,1.57-27.14,.06-1.73-.99-4.37-2.35-5.15-14.01-8.06-29.08-12.58-45.38-12.53,.29-.59,.59-1.18,.88-1.76,16.57-.05,31.82,4.87,47.46,13.57-.73-20.17-1.42-39.13-2.11-58.08l1.68,.09c.55,22.17,1.11,44.35,1.68,66.52,0,.38,.18,.76,.39,1.66,10.49-10,21.42-18.68,36.43-19.52,.18,.54,.35,1.08,.53,1.61-15.63,1.75-27.62,9.67-37,21.94-.65,.85-1.01,2.08-1.11,3.16-.92,9.87-1.75,19.75-2.59,29.63-.03,.4,.15,.81,.32,1.64,10.73-3.14,21.47-3.29,32.23-.54-.2,.61-.4,1.22-.6,1.82-9.77-2.63-19.58-3.05-29.22,.29-1.73,.6-3.52,2.68-4.15,4.47-1.35,3.83-1.95,7.93-2.86,11.92l-1.85-.03Z" style="fill:#338b5e;"/><path d="M51.43,261.94c-.29,.59-.59,1.18-.88,1.76,.22,1.99,.43,3.97,.65,5.96-4.9-4.08-4.43-8.86,1.43-12.57,6.81-4.31,14.47-6.17,22.37-7.04,.89-.1,1.92,1.01,2.89,1.56-6.16,1.72-12.43,3.16-18.45,5.28-2.9,1.02-5.35,3.32-8.01,5.04Z" style="fill:#dad9e6;"/><path d="M85.46,227.71c.37,4.31,.95,8.62,1.03,12.94,.04,1.99-.9,4-1.39,6-2.14,.82-4.27,1.64-7.65,2.94,2.52-7.86,4.68-14.63,6.89-21.38,.08-.26,.73-.33,1.12-.48Z" style="fill:#f9f7fe;"/><path d="M51.47,270.21l.82,1.11-.82-1.11Z" style="fill:#dad9e6;"/><path d="M95.02,380.89c3.99,0,7.99,0,11.98,0h.86c4.67,6.23,8.92,12.83,14.09,18.62,11.44,12.81,22.88,25.68,35.15,37.67,20.82,20.34,43.18,38.86,68.51,53.53,6.82,3.95,13.41,8.28,20.99,12.98-8.73,1.05-16.81,2.02-24.88,2.99-.97-1.11-1.76-2.5-2.94-3.3-19.46-13.1-38.34-27.01-55.14-43.39-15.63-15.24-30.7-31.08-45.41-47.21-6.56-7.19-11.64-15.72-17.37-23.65-1.97-2.73-3.89-5.49-5.83-8.23Z" style="fill:#e3e4f3;"/><path d="M236.3,295.82c-1.4,2.69-2.8,5.38-4.2,8.07-1.48-3.32-3.45-6.52-4.32-9.99-1.11-4.44-3.49-6.74-7.88-7.67-3.74-.8-7.39-2.07-11.01-3.33-3.91-1.36-7.62-1.51-11.59,.09-4.07,1.64-8.35,2.84-12.63,3.85-3.07,.73-4.44,2.68-5.43,5.34-7.96,21.3-15.96,42.58-23.91,63.88-.98,2.64-1.98,3.9-5.23,2.5-3.01-1.3-3.65-2.22-2.36-5.49,7.5-19.05,14.67-38.23,21.96-57.36,4.56-11.94,9.15-23.87,13.72-35.81,2.56,.2,5.12,.4,7.68,.59-.8,2.55-1.61,5.1-2.4,7.65,11.38,5.05,14.08,5.1,25.25,1.66,2.95-.91,3.89-2.38,3.4-5.17,4.34,3.35,8.67,6.7,13.01,10.05,.17,1.78,.04,3.65,.56,5.32,1.67,5.32,3.57,10.56,5.39,15.82Z" style="fill:#bcbcbd;"/><path d="M289.31,375.8c5.04-1.94,10.05-3.94,15.12-5.78,1.68-.61,3.51-.79,5.28-1.16,.87,2.19,1.75,4.38,2.47,6.19,3.83-1.82,7.44-4.2,11.4-5.23,4.66-1.21,5.77,.21,8.34,7.59-.45,.53-.8,1.33-1.37,1.55-11.88,4.58-23.74,9.23-35.74,13.47-1.72,.61-4.17-.85-6.28-1.35-2.07-5.21-.67-10.24,.78-15.27Z" style="fill:#353536;"/><path d="M92.5,342.12c.91-3.99,1.51-8.08,2.86-11.92,.63-1.79,2.42-3.87,4.15-4.47,9.65-3.34,19.45-2.92,29.22-.29-1.59,3.83-4.97,5.08-8.59,5.2-8.29,.29-13.35,5.23-17.69,11.45-3.32,0-6.63,.02-9.95,.03Z" style="fill:#13c75b;"/><path d="M252.19,336.07c5.3-6.65,10.71-13.22,15.89-19.96,7.12-9.27,13.62-18.9,16.37-30.55,1.36-5.75,.7-10.91-2.96-15.72-2.99-3.92-5.68-8.06-8.97-12.76,4.29,.32,7.77,.44,11.2,.94,.84,.12,2.11,1.49,2.14,2.32,.35,9.09,.5,18.19,.7,27.29-.71,1.25-1.67,2.42-2.08,3.77-3.16,10.39-9.51,18.94-15.81,27.49-4.02,5.47-8.32,10.73-12.62,15.99-.84,1.03-2.23,1.62-3.36,2.41-.17-.41-.34-.81-.5-1.22Z" style="fill:#e9e8ef;"/><path d="M288.53,391.08c2.11,.5,4.56,1.96,6.28,1.35,12-4.24,23.86-8.89,35.74-13.47,.57-.22,.92-1.02,1.37-1.55,2.81,4.51,2.63,5.16-2.07,6.93-10.97,4.15-21.87,8.49-32.95,12.33-5.32,1.84-7.52,.02-8.37-5.59Z" style="fill:#e1dfe5;"/><path d="M185.85,380.85c3.8,1.68,7.45,4.09,11.42,4.9,10.63,2.16,21.41,3.63,32.13,5.38,1.12,3.12-.19,4.79-3.27,4.23-12.17-2.21-24.31-4.6-36.43-7.09-1.56-.32-3.22-1.36-4.3-2.55-1.35-1.49-2.26-3.5,.45-4.87Z" style="fill:#e1dfe5;"/><path d="M252.19,336.07c.17,.41,.33,.81,.5,1.22,1.99,5.27,3.83,10.61,6.04,15.78,1.36,3.18,.3,4.39-2.63,5.62-2.99,1.25-3.89,.22-4.86-2.41-1.66-4.46-3.74-8.77-5.64-13.14,2.2-2.36,4.39-4.71,6.59-7.07Z" style="fill:#bcbcbd;"/><path d="M107.86,380.89h-.86c-.55-1.09-1.1-2.17-1.65-3.26,3.42-.05,6.84-.21,10.25-.15,9.05,.18,15.98-9.65,16.31-16.31,.07-1.42,.09-2.84,.14-4.27,.66,2.52,2.21,5.18,1.83,7.53-1.73,10.54-7.88,17.75-20.07,16.48-1.96-.2-3.96-.03-5.95-.03Z" style="fill:#ebebf4;"/><path d="M191.1,260.5c-2.56-.2-5.12-.39-7.68-.59-5.09-1.02-10.32-1.61-15.23-3.19-3.84-1.24-7.29-3.72-10.91-5.65,4.56,1.74,9.01,3.94,13.71,5.11,12.33,3.07,24.96,3.53,37.62,3.15,.64-.02,1.27-.47,1.9-.73,.85,.67,1.71,1.34,2.56,2.01-7.32-.04-14.65-.07-21.97-.11Z" style="fill:#c45e4e;"/><path d="M153.93,245.25c.05,.73,.09,1.45,.14,2.18-.05-.73-.09-1.45-.14-2.18Z" style="fill:#c45e4e;"/><path d="M154.06,247.38l.88,1.75c-.29-.58-.59-1.17-.88-1.75Z" style="fill:#c45e4e;"/><path d="M155.74,249.98c.54,.37,1.08,.73,1.62,1.1-.54-.37-1.08-.73-1.62-1.1Z" style="fill:#c45e4e;"/><path d="M154.91,249.09c.29,.31,.59,.62,.88,.92-.29-.31-.59-.62-.88-.92Z" style="fill:#c45e4e;"/><path d="M336.14,102.59c2.52-4.59,6.68-6.6,11.63-6.62,29.1-.09,58.2-.09,87.3-.02,8.03,.02,14.2,6,14.27,14.02,.16,18.11,.18,36.22-.05,54.33-.04,2.83-1.64,5.65-2.52,8.47-3.17,5.53-8.46,6.71-14.2,6.71-27.65,.04-55.3,.07-82.95,0-13.96-.04-27.92-.32-41.88-.41-2.77-.02-5.21-.2-5.74-3.61,.02-.56,.04-1.12,.06-1.68,1.81-.82,3.6-2.3,5.44-2.36,8.48-.3,16.98-.21,25.47-.26,.81,0,1.63,.01,2.44,.02,.33,.02,.66,.03,.98,.05,.29,.57,.57,1.14,.86,1.71,.29,.28,.57,.57,.86,.85,.38,.65,.75,1.3,1.13,1.95,.16-.18,.46-.5,.45-.51-.51-.5-1.04-.98-1.57-1.46-.28-.29-.57-.57-.85-.86l-.86-1.71c-.29-1.95-.88-3.91-.81-5.84,.77-20.62-1.83-41.32,1.33-61.89,.04-.25-.53-.59-.81-.9Zm61.58,39.69c1.74-2.59,3.64-4.19,3.43-5.41-.28-1.57-2.25-2.85-3.49-4.26-1.23,1.42-3.19,2.72-3.45,4.3-.2,1.22,1.73,2.79,3.51,5.37Z" style="fill:#525360;"/><path d="M248.22,138.52c-.27-6.79-.24-13.62-.94-20.37-.4-3.83-2.03-7.53-3.1-11.29,.75,.44,1.5,.89,2.26,1.33,.56,.49,1.12,.98,1.68,1.47,2.86,2.65,5.73,5.29,8.59,7.94,2.87,2.76,5.74,5.52,8.62,8.29,4.58,4.85,9.16,9.71,13.74,14.56,.84,.85,1.69,1.71,2.53,2.56,.63,0,1.25,.02,1.88,.02,5.3-7.77,10.56-15.57,15.91-23.31,3.17-4.59,6.48-9.08,9.73-13.61,2.86,.97,5.72,1.93,8.58,2.9-.91,1.9-1.73,3.85-2.75,5.7-9.72,17.75-19.47,35.49-29.21,53.23-3.61-.4-7.22-.8-10.84-1.19-8.89-9.41-17.78-18.81-26.68-28.22Z" style="fill:#374fc4;"/><path d="M435.73,94.19c-31.1,0-62.21,0-93.31,0,.38-3.25,2.9-2.55,4.91-2.55,26.28-.03,52.56-.04,78.84,0,2.72,0,5.46,.29,8.16,.67,.55,.08,.94,1.22,1.4,1.87Z" style="fill:#f9f7fe;"/><path d="M317.68,109c-2.86-.97-5.72-1.93-8.58-2.9,2.12-6.21,3.48-12.85,9.34-17.01,5.05,2.05,3.08,6.59,3.62,10.24-1.46,3.22-2.92,6.45-4.38,9.67Z" style="fill:#f9a37b;"/><path d="M332.15,107.03c0,20.25-.01,40.51-.02,60.76-.85-1.22-2.43-2.44-2.44-3.67-.16-17.81-.16-35.63,0-53.44,.01-1.22,1.6-2.43,2.46-3.65Z" style="fill:#f9f7fe;"/><path d="M274.9,166.73c3.61,.4,7.22,.79,10.84,1.19,1.36,.28,2.71,.56,4.07,.84,.41,.22,.82,.43,1.23,.65,1.07,1.42,2.14,2.85,3.21,4.27-.22-.01-.42,.04-.61,.16-6.85-.06-13.7-.11-20.55-.17,.02-2.25,.04-4.5,.06-6.75,.58-.06,1.16-.12,1.75-.19Z" style="fill:#f9a37b;"/><path d="M239.6,102.13c-3.44-2.38-6.6-5.46-10.39-6.94-3.87-1.52-8.36-1.47-12.57-2.1,0-.78,.02-1.55,.03-2.32,8.2-.64,15.2,1.99,20.94,7.85,.91,.93,1.34,2.33,2,3.51Z" style="fill:#f4f2fa;"/><path d="M279.06,140.44c-4.58-4.85-9.16-9.71-13.74-14.56,1.54,.8,3.51,1.24,4.54,2.47,3.25,3.87,6.16,8.03,9.2,12.09Z" style="fill:#f4f2fa;"/><path d="M322.06,99.33c-.53-3.65,1.43-8.18-3.62-10.24,.97-3,2.69-1.87,4.08-.55,2.72,2.57,2.42,7.62-.46,10.79Z" style="fill:#f4f2fa;"/><path d="M256.7,117.59c-2.86-2.65-5.73-5.29-8.59-7.94,4.54,.83,7.11,3.8,8.59,7.94Z" style="fill:#f4f2fa;"/><path d="M293.64,173.84c.19-.12,.39-.17,.61-.16,2.61,.03,5.22,.06,7.83,.1-.02,.56-.04,1.12-.06,1.68-2.76-.72-6.13,1.71-8.37-1.62Z" style="fill:#f4f2fa;"/><path d="M335.58,98.48c-1.14,2-2.28,3.99-3.42,5.99-2.01-2.08-.4-4.91,3.42-5.99Z" style="fill:#f9f7fe;"/><path d="M340.72,94.21c-1.71,1.42-3.43,2.84-5.14,4.27,.03-3.45,2.12-4.42,5.14-4.27Z" style="fill:#f9f7fe;"/><path d="M246.43,108.19c-.75-.44-1.5-.89-2.26-1.33l-.04,.12c-.32-.34-.64-.69-.96-1.03-.93-1.04-1.86-2.08-2.79-3.12,3.55,.06,5.38,2.06,6.05,5.37Z" style="fill:#f4f2fa;"/><path d="M283.46,143.02c-.63,0-1.25-.02-1.88-.02,.63,0,1.25,.02,1.88,.02Z" style="fill:#f4f2fa;"/><path d="M291.03,169.41c-.41-.22-.82-.43-1.23-.65,.41,.22,.82,.43,1.23,.65Z" style="fill:#f4f2fa;"/><path d="M247.88,202.84c.06-5.39,.12-10.78,.18-16.17,9.02,0,18.04,0,27.6,0-2.42,7.53-4.65,14.48-6.89,21.43-6.3-.91-12.61-1.73-18.87-2.81-.79-.14-1.35-1.6-2.02-2.45Z" style="fill:#f9f7fe;"/><path d="M336.14,102.59c.28,.3,.85,.64,.81,.9-3.16,20.57-.56,41.27-1.33,61.89-.07,1.93,.52,3.89,.81,5.84l-.02,.02-.98-.05c-.55-2.89-1.55-5.77-1.58-8.67-.14-17.03-.17-34.07,.05-51.1,.04-2.95,1.45-5.88,2.23-8.82Z" style="fill:#41424c;"/><path d="M488.23,156.55c.79-1.6,1.38-2.8,1.98-4.01,.97,1.22,2.67,2.43,2.71,3.68,.04,1.25-1.58,2.56-2.46,3.84-.71-1.12-1.41-2.23-2.22-3.51Z" style="fill:#eaeaf4;"/><path d="M191.1,260.5c7.32,.04,14.65,.07,21.97,.11,1.42,1.34,2.85,2.68,4.27,4.02,.49,2.79-.45,4.26-3.4,5.17-11.17,3.44-13.87,3.4-25.25-1.66,.8-2.54,1.6-5.09,2.4-7.65Z" style="fill:#f4f2fa;"/><path d="M236.3,295.82c-1.82-5.27-3.72-10.51-5.39-15.82-.52-1.67-.39-3.54-.56-5.32,3.65,2.9,7.31,5.79,10.92,8.73,.74,.6,2,1.84,1.86,2.07-2.16,3.52-4.52,6.92-6.83,10.35Z" style="fill:#f4f2fa;"/><path d="M274.9,166.73c-.58,.06-1.16,.12-1.75,.19-8.34-2.56-16.68-5.11-25.02-7.67,.03-6.91,.06-13.82,.09-20.73,8.89,9.4,17.78,18.81,26.68,28.21Z" style="fill:#f4f2fa;"/><path d="M243.17,105.94c.32,.34,.64,.69,.96,1.03-.32-.34-.64-.69-.96-1.03Z" style="fill:#374fc4;"/><path d="M397.72,142.28c-1.79-2.57-3.71-4.15-3.51-5.37,.26-1.58,2.22-2.88,3.45-4.3,1.24,1.4,3.21,2.68,3.49,4.26,.22,1.22-1.68,2.82-3.43,5.41Z" style="fill:#dedede;"/><path d="M338.14,173.78c.53,.48,1.06,.95,1.57,1.46,0,0-.29,.33-.45,.51-.38-.65-.75-1.3-1.13-1.95h.01Z" style="fill:#41424c;"/><path d="M337.27,172.94c-.29-.57-.57-1.14-.86-1.71l.02-.02c.29,.57,.57,1.14,.86,1.71l-.02,.02Z" style="fill:#41424c;"/><path d="M338.13,173.79c-.29-.28-.57-.57-.86-.85l.02-.02c.28,.29,.57,.57,.85,.86h-.01Z" style="fill:#41424c;"/></svg>