<?xml version="1.0" encoding="utf-8"?>
<!-- Generator: Adobe Illustrator 26.1.0, SVG Export Plug-In . SVG Version: 6.00 Build 0)  -->
<svg version="1.1" id="a" xmlns="http://www.w3.org/2000/svg" xmlns:xlink="http://www.w3.org/1999/xlink" x="0px" y="0px"
	 viewBox="0 0 562 545.7" style="enable-background:new 0 0 562 545.7;" xml:space="preserve">
<style type="text/css">
	.st0{fill:#F9F7FE;}
	.st1{fill:#EBEBF4;}
	.st2{fill:#264067;}
	.st3{fill:#392C29;}
	.st4{fill:#212B57;}
	.st5{fill:#DFDFE8;}
	.st6{fill:#E8C0AB;}
	.st7{fill:#C6C6D2;}
	.st8{fill:#5E7491;}
	.st9{fill:#1B1717;}
	.st10{fill:#2D2827;}
	.st11{fill:#7B8EB7;}
	.st12{fill:#F2F1F9;}
	.st13{fill:#403F44;}
	.st14{fill:#18214D;}
	.st15{fill:#607592;}
	.st16{fill:#4D5D80;}
	.st17{fill:#D9A894;}
	.st18{fill:#637792;}
	.st19{fill:#CE8A6F;}
	.st20{fill:#D18C71;}
	.st21{fill:#E7C0AC;}
	.st22{fill:#918A95;}
	.st23{fill:#040F3C;}
	.st24{fill:#FEFEFE;}
	.st25{fill:#E4BAA5;}
	.st26{fill:#E8D5C8;}
</style>
<path class="st0" d="M562,291V312c-0.5,0.9-1.4,1.7-1.5,2.6c-0.4,3.2-0.5,6.4-1,9.6c-3.6,22.5-11.2,43.5-22.4,63.3
	c-14.3,25.2-32.3,47.2-53.4,66.9c-16.4,15.3-34,29-53,41c-17.6,11.3-36.1,21-55.5,28.8c-27.2,10.9-55.1,19-84.6,20.4
	c-0.5,0.2-1.5,0.2-2.7,0.4l-27.4,0.2c-0.1,0-1.6-0.1-3.4-0.6c-8-1.3-16.1-1.9-23.9-3.7c-25.8-5.8-47.7-18.9-66.9-36.7
	c-11.8-11-21.9-23.5-31.2-36.7c-14.9-21.3-26.8-44.3-38.1-67.6c-2.8-5.9-5.3-12-7.9-18c126.5,0,253,0,379.5,0c1.2,0,2.3-0.1,3.5,0
	c2.5,0.2,3.1-0.9,3.1-3.2c-0.1-4.1-0.1-8.3,0-12.4c0.1-2.4-0.8-3.1-3.2-3.1c-7,0.1-13.9,0-20.9,0c3.2-13.3,6.5-26.6,9.6-40
	c6.5-28.9,13.3-57.7,19.1-86.7c2.2-11.1,1.7-22.6-2.6-33.4c-4-10-10.9-18.1-22.3-16.6c-13.7,0-27.4,0-41.1,0.1
	c-5.3-0.1-10.7-0.2-16-0.4c0.2-0.4,0.5-0.9,0.7-1.3l0.8-0.7l0,0c6.8-7.8,13.6-15.6,20.4-23.3c0.7-1.5,1.5-2.9,1.9-4.5
	c4.1-15.5,5.6-31.2,4.1-47.2c-0.7-7.5-4.2-12.6-10.9-15.6c-2.9-1.3-6-2.5-9.1-3.2c-5.3-1.1-10.8-1.8-16.5-2.7
	c5-4.8,10.9-6.9,17.2-7.4c6.2-0.5,12.4-0.1,19.5-0.1c-9.3-7.4-18.8-11.4-30.1-11c-3.3,0.1-5.6,1.4-6.9,4.6c-1.1,2.8-2.5,5.4-4,8.4
	c-1.1-2.2-2-3.9-2.9-5.7c-5.5-10.1-11.8-19.7-20.6-27.3c-9.2-7.9-19.5-11.1-31.6-7.8c-23.8,6.5-45.7,17.1-67.3,28.7
	c-8.1,4.4-12.6,10.6-14.1,19.4c-1.3,4-2.4,8-3.8,11.9c-1.5,4.2-1.5,8.2,0.4,12.2c5.5,10.9,11,21.7,16.5,32.6
	c-3.5,2.9-3.1,9.5,0.6,12.1c1.1,0.8,2.3,1.9,2.6,3.1c1.6,5.2,4.4,9.5,8.8,12.8c-0.2,2.9-0.6,5.9-0.6,8.8c-0.1,5.2-2.8,10.7,1.3,15.6
	c2.5,3,4.9,6.4,8,8.8c5.1,4,10.8,7.3,16.2,10.9c-0.4,1.4-1,2.8-1.3,4.3c-1.4,6.7-2.7,13.4-4,20.1c-5.2,3.6-10.5,7.1-15.6,10.7
	c-3.1,2.2-6.2,4.5-9.3,6.8c0.1-1.5,0.2-3.1,0.2-4.6c0-22.7,0-45.4,0-68.1c0-1.8,0-3.6-0.1-5.4c-0.4-5.1-4.2-9-9.2-9.3
	c-3.2-0.2-6.4,0.1-9.6,0.2c-2.7-0.1-5.4-0.3-8.1-0.3c-71.2,0-142.3,0-213.5,0c0.3-4.9,0.5-9.7,0.8-14.6c0.7-13.9,4.5-27,10.5-39.6
	c7.6-15.9,18.7-29.1,32-40.6c11.9-10.3,25-18.9,38.8-26.3c23.8-12.7,48.8-22.7,74.8-30c14.9-4.2,29.9-8.4,45.2-11.3
	c18.1-3.4,36.5-5.4,54.7-8.1c0.8-0.1,4.7-0.6,6-0.6h39.3c2.9,0.2,6.1,0.9,9,1.4c14.5,1.9,28.4,6.1,41.7,12.2
	c26.4,12,48.9,29.6,67.7,51.5c12.6,14.7,25.3,29.5,36.5,45.3c22.5,31.7,41.9,65.2,56.7,101.3c10.1,24.4,17,49.5,19,76
	C560.6,289.6,561.5,290.3,562,291L562,291z"/>
<path class="st1" d="M0,362.8c16.1,0,32.2-0.1,48.4-0.1c15.3,0,30.7,0.1,46,0.1c28,0,55.9-0.1,83.9-0.1c7,0,14,0,21,0l65.1,0
	c27.1,0,54.2,0,81.4,0c5.6,0,11.3,0,16.9,0c4.9,0,9.8,0,14.7,0c9.1,0,18.2,0.1,27.2,0.1c15.5,0,31,0,46.5,0c7,0,13.9,0.1,20.9,0
	c2.3,0,3.2,0.7,3.2,3.1c-0.1,4.1-0.1,8.3,0,12.4c0.1,2.3-0.6,3.4-3,3.2c-1.1-0.1-2.3,0-3.5,0c-126.5,0-253,0-379.5,0
	c-29.7,0-59.4,0-89.1,0L0,362.8L0,362.8z"/>
<path class="st2" d="M66.6,323.8c-11.5-0.1-22.9-0.3-34.4-0.4c-9-0.1-12.7-3.7-12.7-12.6c0-42,0-84.1,0-126.1
	c0-7.3,1.7-9.9,8.4-12.7c71.2,0,142.3,0,213.5,0c2.7,0,5.4,0.2,8.1,0.3c6.1,5.3,4.8,12.5,4.8,19.3c0,38.1,0,76.1,0,114.1
	c0,6.1,0.9,12.5-4.8,17c-0.1,0,0,0.2,0,0.4c-0.2,0.1-0.4,0.2-0.7,0.4c-17.8,0-35.6,0-53.4-0.1c-0.4,0-0.8,0-1.2,0.1
	c-2.1,0-4.1,0.1-6.2,0.1c-18,0-35.9,0.1-53.9,0.1c0-10.2,0-20.4,0-30.6c13.9-0.1,27.9-0.1,41.8-0.2c1.7,0,3.4,0.1,5,0.1
	c6.6-0.1,9.7-3.1,9.7-9.7c0-20.9,0-41.8,0-62.7c0-5.4-3.1-8.7-8.5-8.9c-3.1-0.1-6.2,0-9.3,0c-38.8,0.2-77.6,0.4-116.4,0.7
	c-5.1,0-8.4,3.5-8.4,8.6c-0.1,21.3-0.1,42.6,0,63.9c0,5.3,3,8,8.2,8.1c12,0,24,0,36,0c0.2,0.6,0.7,1.1,0.7,1.7
	c0,8.8,0.1,17.5,0,26.3c0,0.8-0.7,1.5-1,2.3L66.6,323.8L66.6,323.8z"/>
<path class="st3" d="M261.6,145.7c-5.5-10.9-11-21.7-16.5-32.6c0.4-0.2,1.1-0.3,1.3-0.7c5.6-8.8,14.2-13.7,23.3-17.8
	c10.2-4.5,20.7-5.4,31.4-0.8c7.1,3,14.4,5.6,21.8,7.8c13.2,4,26.7,5.9,40.6,3.2c-2.4-0.3-4.8-0.1-7.1-0.4
	c-15.6-1.9-29.4-8.3-41.8-17.7c-7-5.3-14.5-8.9-23.2-9.3c-14-0.6-27.1,2.5-39.2,9.6c-1.2,0.7-2.4,1.2-3.6,1.8
	c1.5-8.8,6-15,14.1-19.4c21.6-11.6,43.5-22.3,67.3-28.7c12.1-3.3,22.4-0.1,31.6,7.8c8.9,7.6,15.1,17.2,20.6,27.3
	c0.9,1.7,1.8,3.4,2.9,5.6c1.4-3,2.9-5.6,4-8.4c1.3-3.2,3.6-4.5,6.8-4.6c11.2-0.4,20.8,3.6,30.1,11c-7.1,0-13.3-0.4-19.5,0.1
	c-6.3,0.5-12.2,2.7-17.2,7.4c5.7,0.9,11.1,1.6,16.5,2.7c3.1,0.7,6.2,1.8,9.1,3.2c6.6,3,10.2,8.1,10.9,15.6c1.5,16,0,31.7-4.1,47.2
	c-0.4,1.6-1.3,3-2,4.5c-1.7,0.8-3.4,1.7-5.1,2.5c-3.1,1.4-6.1,2.7-9.5,4.1c-0.6-2.1-0.8-3.3-1.3-4.5c-2.8-6.6-5.4-13.2-8.5-19.6
	c-0.9-1.9-3.3-3-5.2-4.6c-1.5,6.2-2.8,11.5-4,16.9c-1.1,3.1-2.3,6.1-3.4,9.2c-1.1,2.1-2.3,4.2-3.5,6.2c-2.4,3.4-4.8,6.8-7.1,10.1
	c0.2-1.8,0.4-3.7,0.6-5.5c2.1-8,4.3-16,6.3-24c0.3-1.3,0-2.8-0.2-4.2c-0.6-3.7-1.5-7.3-1.9-11c-0.1-1.4,0.6-3.2,1.4-4.5
	c3.1-5.3,6.8-10.3,9.5-15.8c3.5-7.5,4.2-15.4,0.9-23.4c-0.3,0.7-0.3,1.5-0.3,2.2c0.5,7.4-2.4,13.3-7.7,18.2
	c-3.8,3.4-7.8,6.6-11.7,9.9c-0.8,0-1.6-0.1-2.3,0c-10.6,1.7-21.1,1.2-31.5-0.8c-14.7-2.8-29.1-8.2-44.5-5.6
	c-6.4-1.9-16.5,1-20.7,6.7c-4.7,6.4-8.8,13.2-3.2,21.3L261.6,145.7L261.6,145.7z"/>
<path class="st4" d="M268.2,259.5c3.1-2.3,6.2-4.6,9.3-6.8c5.2-3.6,10.4-7.1,15.6-10.7c10.3-5.2,20.7-9.9,32.4-4.1
	c0.4,1.1,0.7,2.1,1,3.2c-0.9,3.3-2.2,6.6-2.4,10c-0.2,3.2,1.7,5.4,5.5,5.6c6,0.4,11.9-0.6,16.5-4.3c4.9-4,9-9,13.5-13.5
	c4.9-1.1,9.8-2.2,14.7-3.3c7.6-1.8,15.1-2,22.4,0.9c4.9,3.5,8.2,8,9.3,14.1c1.4,7.7,1,15.3-2,22.4c-7.3,17.6-15.2,35-22.2,52.7
	c-2.4,6.1-5.6,9-12.1,7.9c-5.5-1.1-10.9-2.1-16.4-3.2c-6.4-3.6-12.9-7.3-19.3-10.9c-2.4-2.1-2.2-4.4-1.1-7.2
	c3.3-9.2,6.4-18.5,9.6-27.7c0.3-0.8,0.4-1.7,0.5-2.6c-5.1,8.8-9.6,17.7-13.9,26.7c-1.3,2.7-2.9,5.5-1.4,8.8c0.3,0.6-0.7,2.2-1.5,2.7
	c-8,4.3-16.2,8.4-24.3,12.7c-2.3,1.2-4.4,2.8-6.6,4.2l-25.8,6.4c1-3.1,2.1-6.3,3.1-9.4c3.5-9.4,7-18.7,10.3-28.1
	c1.2-3.5,2-7.1,3-10.6c2.7-6.1,5.4-12.2,8-18.4c1.5-3.6,2.9-7.4,4.4-11c0.1,0,0.2-0.1,0.3-0.1c0,0,0-0.1,0-0.2l-0.3,0.3
	c-3.4,4.1-6.6,8.4-10.1,12.4c-6.5,7.4-13.1,14.5-19.7,21.8c-0.1-1.5-0.3-3.1-0.3-4.6C268.2,283.5,268.2,271.5,268.2,259.5
	L268.2,259.5z"/>
<path class="st5" d="M451.1,362.8c-15.5,0-31,0-46.5,0c1.9-8.1,3.8-16.3,5.7-24.4c6.6-28.1,13.1-56.3,20-84.3
	c4.3-17.3,8.9-34.6,13.9-51.7c1.8-6.3,4.1-12.9,10.7-16.2c11.3-1.5,18.2,6.6,22.3,16.6c4.4,10.8,4.9,22.3,2.7,33.4
	c-5.9,29-12.6,57.8-19.1,86.7C457.7,336.1,454.4,349.4,451.1,362.8L451.1,362.8z"/>
<path class="st6" d="M372.1,180.7c2.4-3.4,4.8-6.8,7.1-10.1c1.3,1.3,3.3,2.4,3.6,3.9c0.4,1.9-0.7,4-1.2,5.9c5-1.2,5.6-2.4,4.6-10.8
	c6.2-1.5,7-0.9,10.9,8.8c2.2-7.2-0.2-11.7-7.4-13.3c-2.3-0.5-4.8-0.5-7.2-0.7c1.1-3.1,2.3-6.1,3.4-9.2c11.6,0.5,18.5,9.9,15.4,21.1
	c-0.7,2.5-1.5,5.1-2.2,7.6l0-0.1c-0.3,0.2-0.5,0.5-0.8,0.8c-0.2,0.4-0.5,0.9-0.7,1.3c-3.9,5.6-8,10.9-15.1,12.8
	c-3.7-0.6-7.4-1.2-11.8-1.9c-0.9,1.3-2.4,3.5-3.9,5.7c-6.4,4.3-12.7,9-19.4,12.9c-7.3,4.2-14.9,8-23.8,7.9c-2-0.1-4.2,0-6.1-0.5
	c-6.5-1.6-12.9-3.3-19.3-5c-5.4-3.6-11.1-6.9-16.2-10.9c-3.1-2.4-5.4-5.7-8-8.8c-4-4.9-1.4-10.4-1.3-15.6c0.1-2.9,0.4-5.9,0.6-8.8
	c3.1,1,6.2,2,9.3,3c7.8,0.4,14-3.1,16.9-10.1c1.3-3.1,3.3-4.3,6.3-4.6c3.1,1.3,7.6,1.7,8.9,4c3.9,6.9,9.3,11,16.6,13
	c3.7,0.3,7.5,1.1,11.2,0.8c11.4-0.9,19.5-7.9,22.2-18.8c0.5-1.8,0.5-4,3.4-3.7c2.9,0.3,2.6,2.6,2.7,4.3c0.2,5.1,0.1,10.3,0,15.5
	c0,1.7-0.4,3.4-0.6,5.2l0.8,0.1L372.1,180.7L372.1,180.7z M312.2,188.5c0.1-0.5,0.2-0.9,0.4-1.4c-2.4-4-6-5.9-10.7-5.7
	c-1.6,0.1-4.5,1.4-4.5,2.2c0,2.2,0.9,4.7,3.9,4.8C304.9,188.6,308.6,188.5,312.2,188.5L312.2,188.5z M298.2,176.9
	c2.9,1.4,6.2,2.9,7.5,0c1.4-3.1,1-7.1,1.4-10.7l-1.8-0.7C303,169.2,300.7,172.9,298.2,176.9L298.2,176.9z M305.3,202h21.1
	C320.9,198.4,311.7,198.5,305.3,202z M379.3,180.9l-0.3-0.1l0,0.4c0.1,0,0.2,0,0.3-0.1C379.3,181.1,379.3,181,379.3,180.9
	L379.3,180.9z"/>
<path class="st7" d="M454.9,186.1c-6.7,3.4-8.9,9.9-10.7,16.2c-5,17.1-9.6,34.4-13.9,51.7c-6.9,28.1-13.4,56.2-20,84.3
	c-1.9,8.1-3.8,16.2-5.7,24.4c-9.1,0-18.2-0.1-27.2-0.1c1.1-7.2,2.2-14.4,3.3-21.5c1.6,0,2.5-0.2,3.4,0c4.1,1.1,6.4-0.7,8-4.4
	c6.1-13.6,12.9-27,18.6-40.8c5.8-14,9.6-28.5,10.2-43.8c0.6-13.8-9.8-19-24.1-15.7c-7.4-2.9-14.9-2.7-22.4-0.9
	c0.9-4.8,1.8-9.6,2.6-14.3c0.5-2.9,1.9-4.7,4.4-6.4c12-8.2,23.4-17.1,32.4-28.8C427.5,186.1,441.2,186.1,454.9,186.1L454.9,186.1z"
	/>
<path class="st8" d="M268.2,259.5c0,12,0,24,0.1,35.9c0,1.5,0.2,3.1,0.3,4.6c-0.1,3.6-0.3,7.2-0.4,10.8c0.7,8.3-3.1,12.5-11.4,12.5
	c-2.4,0-4.8-0.2-7.2-0.3c0-0.1,0-0.3,0-0.4c5.7-4.5,4.8-10.9,4.8-17c0-38,0-76.1,0-114.1c0-6.8,1.3-14-4.8-19.3
	c3.2-0.1,6.4-0.3,9.6-0.2c5,0.3,8.8,4.2,9.2,9.3c0.1,1.8,0.1,3.6,0.1,5.4c0,22.7,0,45.4,0,68.1C268.4,256.5,268.3,258,268.2,259.5
	L268.2,259.5z"/>
<path class="st9" d="M248.5,89c1.2-0.6,2.5-1.2,3.6-1.8c12.1-7.1,25.2-10.2,39.2-9.6c8.8,0.4,16.2,4,23.2,9.3
	c12.4,9.4,26.2,15.8,41.8,17.7c2.4,0.3,4.8,0,7.1,0.4c-13.8,2.7-27.3,0.8-40.6-3.2c-7.4-2.2-14.7-4.8-21.8-7.8
	c-10.7-4.6-21.1-3.7-31.4,0.8c-9.1,4-17.7,9-23.3,17.8c-0.2,0.4-0.9,0.5-1.3,0.7c-2-4-1.9-8-0.4-12.2C246.1,97,247.2,93,248.5,89
	L248.5,89z"/>
<path class="st10" d="M282.9,176.7c-3.1-1-6.2-2-9.3-3c-4.4-3.3-7.2-7.6-8.8-12.8c-0.4-1.2-1.5-2.3-2.6-3.1
	c-3.7-2.5-4.1-9.2-0.6-12.1c1.7-0.5,3.4-1,5-1.6c3.7-0.8,7.4-1.6,11-2.4c0.4,0,0.8-0.1,1.2,0c9.7,1,18.7,3.2,23,13.6
	c0.3,0.8,1.8,1.6,2.7,1.7c2.8,0.2,5.6,0.1,8.4,0.1c0.5-6.8,0.5-6.8,5.5-9.8c6.7-4,14-6.6,21.8-7.3c10.4,0,20.6,0.9,30.4,4.7
	c-0.3,1.1-0.6,2.1-0.9,3.2c-0.9,3-1.8,6.5-5.3,6.8c-3,0.3-3.5,1.8-4,4c-2.5,10.1-10.3,17.2-20.5,18.7c-0.9,0.1-1.8,0.9-2.7,1.4
	l-5.5,0c-7.4-2-12.8-6.1-16.6-13c-1.3-2.3-5.8-2.7-8.9-4c-4.5-1.6-7-0.6-8.8,3.5c-2.3,5.5-6.4,8.7-12.3,9.7
	C284.4,175.4,283.7,176.2,282.9,176.7L282.9,176.7z M276.6,147.3c-0.2-0.1-0.5-0.1-0.7-0.1c-0.4-0.4-0.7-1.2-1.1-1.3
	c-5.7-1-9.4,2.7-8.3,8.3c0.4,1.7,0.3,3.7,1.1,5.2c1.4,2.8,1.3,6.8,5.7,7.2l1.1,0.7c3.9,4.2,8.7,5.4,14,3.4c5.2-1.9,7.5-5.9,7.6-11.3
	c0-1.9,0.4-4.6-0.7-5.6c-4.3-3.9-9.3-6.9-15.5-6.4C278.7,147.4,277.7,147.3,276.6,147.3L276.6,147.3z M349.6,145.5
	c-1-0.2-2.1-0.4-3.1-0.5h-4.6c-0.9-0.3-1.9-0.8-2.8-0.8c-7.8-0.1-14.4,3.3-21,7c-2.5,1.4-3.1,3.2-2.4,5.8c1,3.3,1.5,6.9,3.2,9.8
	c1,1.7,1.7,6.2,5.9,3.6c15.5,8.5,31.5,1.1,33.7-15.5c0.9-6.8,0.5-7.4-6-8.8C351.6,145.8,350.6,145.7,349.6,145.5L349.6,145.5z"/>
<path class="st11" d="M413.8,186.2c-9,11.6-20.4,20.6-32.4,28.8c-2.4,1.6-3.9,3.5-4.4,6.4c-0.8,4.8-1.7,9.6-2.6,14.3
	c-4.9,1.1-9.8,2.2-14.7,3.3c0.1-1.4,0.2-2.8,0.5-4.2c1.4-7.4,2.8-14.9,4.2-22.3l0,0c0.2-0.5,0.5-1,0.7-1.5l0.9-1.7
	c5.6-3.5,11.2-7.1,16.8-10.6c7.1-1.9,11.2-7.2,15.1-12.8C403.1,185.9,408.5,186.1,413.8,186.2L413.8,186.2z"/>
<path class="st7" d="M298.5,217.8c6.4,1.7,12.8,3.5,19.3,5c2,0.5,4.1,0.3,6.1,0.5c0.6,4.9,1.1,9.8,1.7,14.7
	c-11.7-5.8-22.1-1.1-32.4,4.1c1.3-6.7,2.6-13.4,4-20.1C297.5,220.6,298,219.2,298.5,217.8z"/>
<path class="st9" d="M399.2,183.8c0.7-2.5,1.5-5.1,2.2-7.6c3.1-11.2-3.7-20.6-15.4-21.1c1.3-5.3,2.5-10.6,4-16.9
	c1.9,1.6,4.3,2.8,5.2,4.6c3.1,6.4,5.8,13,8.5,19.6c0.5,1.2,0.7,2.4,1.3,4.5c3.3-1.4,6.4-2.7,9.5-4.1c1.7-0.8,3.4-1.7,5.1-2.5
	C412.9,168.2,406.1,176,399.2,183.8L399.2,183.8z"/>
<path class="st9" d="M398.5,184.5l0.8-0.8C399,184,398.7,184.2,398.5,184.5z"/>
<path class="st4" d="M178.2,362.7c-28,0-55.9,0.1-83.9,0.1c-15.3,0-30.7-0.1-46-0.1c0-3.5,0-6.9,0-11.4H76
	c5.3,0.2,10.6,0.4,15.9,0.5c0.7,0,1.3,0.1,1.9,0.1l31.1,0l9.2-0.6c1,0.1,2,0.2,3.1,0.3l0.9,0l2.2,0c0.8,0,1.6,0,2.4,0l1.5-0.2
	c2.9,0.1,5.9,0.2,8.8,0.2c8.5,0.2,16.9,0.3,25.4,0.4C178.3,355.4,178.3,359,178.2,362.7L178.2,362.7z"/>
<path class="st12" d="M91.8,351.8c-5.3-0.2-10.6-0.4-15.9-0.5c-2.6-7.3-5.2-14.6-7.8-21.9c-0.6-1.8-1.1-3.6-1.6-5.5
	c8.4-0.2,16.9-0.3,25.3-0.5c0.1,4.5,0.4,9,0.3,13.5C92.3,341.8,92,346.8,91.8,351.8L91.8,351.8z"/>
<path class="st11" d="M396.9,236.5c14.3-3.3,24.7,1.9,24.1,15.7c-0.7,15.3-4.5,29.8-10.2,43.8c-5.7,13.8-12.5,27.2-18.6,40.8
	c-1.7,3.8-3.9,5.5-8,4.4c-0.8-0.2-1.8,0-3.4,0c-1.1,7.2-2.2,14.3-3.3,21.5c-4.9,0-9.8,0-14.7,0c0.3-2.5,0.6-5.1,0.9-7.6
	c1.1-5.3,2.3-10.5,3.4-15.8c0.9-1.9,1.9-3.8,2.8-5.7c6.5,1.1,9.7-1.8,12.1-7.9c7.1-17.7,15-35.1,22.2-52.7c3-7.1,3.4-14.7,2-22.4
	C405.1,244.5,401.7,240,396.9,236.5L396.9,236.5z"/>
<path class="st13" d="M264.3,362.7c-21.7,0-43.4,0-65.1,0c0-2,0.1-4.1,0.1-6.1c2.9-3.8,5.8-7.6,8.7-11.4c2.2-0.9,4.9-1.4,6.6-2.8
	c2.5-2,4.9-2.2,7.8-1.2c-1.1,0.8-2.2,1.5-3.4,2.3c-4.1,2.9-8.3,5.8-12.4,8.8c-1.4,1.1-2.3,2.4,0.4,3.1l6.3-1.1
	c-0.2,1.8-3.8,3.4-0.1,5.3l1-0.4c0.2-0.1,0.4-0.2,0.6-0.3l1.5-0.9l0,0l0.9-0.6l0,0c0.5-0.3,0.9-0.6,1.4-1l0,0l3.1-2.3v0
	c1.3-0.7,2.6-1.5,4-2c1-0.3,2.1-0.1,3.2-0.2c-1.9,2-3.9,4-5.6,6.1c-0.3,0.3,0.5,1.5,0.8,2.2c0.6-0.2,1.1-0.4,1.7-0.6l0,0l1.5-0.9
	l0,0c1-0.5,2-1,2.9-1.6c6.6-4.6,10-4.4,16.2,0.8c1.8,1.5,4.1,2.8,6.4,3.1c3.9,0.5,7.8,0.2,11.8,0.2
	C264.4,361.8,264.4,362.2,264.3,362.7L264.3,362.7z"/>
<path class="st14" d="M264.3,362.7c0-0.5,0-0.9,0-1.3c8.7,0,17.5,0.6,26.2-0.2c16-1.4,32-3.2,47.9-5.6c11.3-1.7,22.4-4.5,28.3-16.1
	c0-0.1,0.2-0.1,0.3-0.2c-1.1,5.3-2.3,10.5-3.4,15.8c-5.8,2.2-11.6,4.4-17.4,6.6c-0.2,0.1-0.3,0.7-0.4,1
	C318.6,362.7,291.5,362.7,264.3,362.7L264.3,362.7z"/>
<path class="st15" d="M199.3,356.5c0,2-0.1,4.1-0.1,6.1c-7,0-14,0-21,0c0-3.6,0.1-7.2,0.1-10.8c6.9,0,13.7,0,20.7,0
	C199.1,353.8,199.2,355.2,199.3,356.5L199.3,356.5z"/>
<path class="st4" d="M345.7,362.7c0.1-0.4,0.2-0.9,0.4-1c5.8-2.2,11.6-4.4,17.4-6.6c-0.3,2.5-0.6,5.1-0.9,7.6
	C357,362.6,351.4,362.6,345.7,362.7L345.7,362.7z"/>
<path class="st16" d="M92.3,293c-12,0-24,0-36,0c-5.2,0-8.2-2.8-8.2-8.1c-0.1-21.3-0.1-42.6,0-63.9c0-5.2,3.3-8.6,8.4-8.6
	c38.8-0.3,77.6-0.5,116.4-0.7c1.8,2.1,4.1,3.9,5.1,6.2c1,2.4,1,5.3,1,8c0.1,11.6,0.3,23.2,0,34.8c-0.3,10.8,2.1,21.8-2.9,32.1
	c-13.9,0.1-27.9,0.1-41.8,0.2c0-16.2-0.1-32.5-0.1-48.7c0-6.4-3.1-9.5-9.4-9.5c-9.6,0-19.1,0.1-28.7,0c-2.7,0-3.9,0.5-3.9,3.6
	C92.4,256.6,92.3,274.8,92.3,293L92.3,293z"/>
<path class="st4" d="M92.3,293c0-18.2,0-36.4-0.1-54.6c0-3.1,1.1-3.6,3.9-3.6c9.6,0.1,19.1,0,28.7,0c0,13.3,0.1,26.6,0.1,39.9
	c0,25.4-0.1,50.9-0.1,76.3c-9,0-18,0-27,0c-1.3,0-2.7,0.5-4,0.8c-0.7,0-1.3-0.1-1.9-0.1c0.2-5,0.5-10,0.5-15c0-4.5-0.2-9-0.3-13.5
	c0.3-0.8,1-1.5,1-2.3c0.1-8.8,0.1-17.5,0-26.3C93,294.2,92.6,293.6,92.3,293L92.3,293z"/>
<path class="st17" d="M199.3,356.5c-0.1-1.4-0.2-2.8-0.3-4.7c-7,0-13.8,0-20.7,0c-8.5-0.1-16.9-0.3-25.4-0.4c-2.9,0-5.9-0.2-8.8-0.2
	c0.2-0.2,0.3-0.5,0.6-0.5c19-4.4,34.7-15,49.8-26.6l1-0.6c17.8,0,35.6,0,53.4,0.1c-4.7,3.5-9.4,7.1-14.2,10.6
	c-3.1-0.4-6.3-1.2-9.4-1.2c-3.6,0-7.5-2.7-11,0.5c-2.6,2.4-5.1,5-7.6,7.6c-1.9,1.9-1,2.8,1.2,3.2l0.1,0.9
	C205.1,348.9,202.2,352.7,199.3,356.5L199.3,356.5z"/>
<path class="st0" d="M194.5,324c-15.1,11.6-30.9,22.2-49.8,26.6c-0.2,0-0.4,0.3-0.6,0.5c-0.5,0.1-1,0.1-1.5,0.2c-0.8,0-1.6,0-2.4,0
	c-0.7,0-1.5,0-2.2,0c-0.3,0-0.6,0-0.9,0c-1-0.1-2-0.2-3.1-0.3c0-9.2,0.1-18.4,0.1-27.5c18,0,35.9-0.1,53.9-0.1c2.1,0,4.1,0,6.2-0.1
	C194.3,323.7,194.4,323.9,194.5,324L194.5,324z"/>
<path class="st18" d="M134.2,323.7c0,9.2-0.1,18.4-0.1,27.5c-3.1,0.2-6.1,0.4-9.2,0.6c-0.1-0.2-0.1-0.5-0.2-0.8
	c0-25.4,0.1-50.9,0.1-76.3c0-13.3-0.1-26.6-0.1-39.9c6.2,0,9.4,3.2,9.4,9.5c0,16.2,0.1,32.4,0.1,48.7
	C134.2,303.3,134.2,313.5,134.2,323.7L134.2,323.7z"/>
<path class="st15" d="M176,292.9c5.1-10.3,2.6-21.4,2.9-32.1c0.3-11.6,0.1-23.2,0-34.8c0-2.7,0-5.6-1-8c-1-2.4-3.4-4.2-5.1-6.2
	c3.1,0,6.2-0.1,9.3,0c5.4,0.2,8.5,3.5,8.5,8.9c0,20.9,0,41.8,0,62.7c0,6.6-3.1,9.6-9.7,9.7C179.4,293,177.7,292.9,176,292.9
	L176,292.9z"/>
<path class="st0" d="M234.7,334.1c4.7-3.5,9.4-7.1,14.2-10.6c0.2-0.1,0.4-0.2,0.7-0.4c2.4,0.1,4.8,0.3,7.2,0.3
	c8.3,0,12.1-4.2,11.4-12.5c3.6-3.1,7.2-6.3,10.8-9.5c-1.4,6.7-2.8,13.3-4.1,20c-0.8,4.2-1.5,8.4-2.2,12.6c-1,3.1-2.1,6.3-3.1,9.4
	c-1.8-0.1-3.8,0.3-5.5-0.2C254.3,340.3,244.5,337.1,234.7,334.1L234.7,334.1z"/>
<path class="st18" d="M194.5,324c-0.1-0.1-0.2-0.3-0.2-0.5c0.4,0,0.8,0,1.2-0.1C195.2,323.6,194.8,323.8,194.5,324L194.5,324z"/>
<path class="st19" d="M370.7,144.9c-9.8-3.8-20-4.8-30.4-4.7c-5,0.4-10,0.9-15,1.2c-1.7,0.1-3.4-0.1-5.1-0.2c11.1-4.1,22.4-5.1,34-3
	c4,0.7,7.8,2,11.8,3l0,0l0.1,0.6l0.7-0.5c0.2,0,0.5,0,0.7,0c0.1,0.1,0.2,0.1,0.3,0.2l-0.3-0.2c-0.5-3-0.9-6-1.6-9
	c-0.2-0.8-1.5-1.9-2.2-1.8c-3.6,0.3-7.2,0.9-10.9,1.3c-8.6-2.9-17.5-3.7-26.5-2.3c-7.9-2.5-16.1-2.6-24.2-2
	c-3.8,0.3-7.6,1.8-11.4,2.7c-3.9,0.3-7.8,0.6-11.7,1c0.2-1.2,0.5-2.5,0.8-3.7c1-6.2,4.6-9.9,10.9-11.1c15.4-2.6,29.8,2.8,44.5,5.6
	c10.5,2,21,2.5,31.5,0.8c0.8-0.1,1.5,0,2.3,0c1,4.8,2.1,9.5,2.8,14.4c1,7.4,2,14.7,2.3,22.1c0.2,5.4-0.8,10.7-1.3,16.1
	c-0.2,1.8-0.4,3.7-0.6,5.5c-0.2,0.6-0.4,1.1-0.6,1.7l-0.8-0.1c0.2-1.7,0.6-3.4,0.6-5.2c0.1-5.1,0.2-10.3,0-15.5
	c-0.1-1.7,0.3-4.1-2.7-4.3c-2.9-0.3-2.9,1.9-3.4,3.7c-2.7,10.8-10.8,17.9-22.2,18.8c-3.7,0.3-7.4-0.5-11.2-0.8c1.8,0,3.6,0,5.5,0
	c12.8-0.1,23.1-7.5,25.8-18.9c0.3-1.4,1.5-3.3,2.7-3.8c3.8-1.4,6.7-4.5,6.7-8.6C372.4,146.8,371.3,145.8,370.7,144.9L370.7,144.9z"
	/>
<path class="st9" d="M372.7,175.2c0.5-5.4,1.5-10.8,1.3-16.1c-0.3-7.4-1.3-14.8-2.3-22.1c-0.6-4.8-1.8-9.6-2.8-14.4
	c3.9-3.3,8-6.4,11.7-9.9c5.3-4.8,8.2-10.8,7.7-18.2c0-0.7,0-1.5,0.3-2.2c3.3,7.9,2.6,15.9-0.9,23.4c-2.6,5.5-6.4,10.5-9.5,15.8
	c-0.8,1.3-1.5,3.1-1.4,4.5c0.4,3.7,1.3,7.3,1.9,11c0.2,1.4,0.5,2.9,0.2,4.2C377,159.2,374.8,167.2,372.7,175.2L372.7,175.2z"/>
<path class="st9" d="M290.6,116.2c-6.2,1.2-9.8,4.9-10.9,11.1c-0.2,1.2-0.5,2.5-0.8,3.7c-0.9,0.7-1.8,1.4-2.5,2.2
	c-0.8,0.9-1.3,2.1-1.9,3.1c1.2,0.5,2.4,1.1,3.5,1.6c-0.1,1.2-0.3,2.5-0.4,3.8c-3.7,0.8-7.4,1.6-11,2.4c-5.5-8.1-1.5-14.9,3.2-21.3
	C274.1,117.2,284.2,114.2,290.6,116.2L290.6,116.2z"/>
<path class="st20" d="M382.7,164.3c2.4,0.2,4.9,0.2,7.2,0.7c7.2,1.6,9.6,6.1,7.4,13.3c-3.9-9.7-4.7-10.3-10.9-8.8
	c0.9,8.4,0.4,9.6-4.6,10.8c0.4-1.9,1.5-4,1.2-5.9c-0.3-1.5-2.4-2.6-3.6-3.9C380.4,168.5,381.5,166.4,382.7,164.3L382.7,164.3z"/>
<path class="st21" d="M234.7,334.1c9.8,3.1,19.5,6.2,29.4,9.1c1.7,0.5,3.7,0.2,5.5,0.2c8.6-2.1,17.2-4.3,25.8-6.4
	c11.3-4.2,22.6-8.3,33.8-12.7c2-0.8,3.3-3.2,5-4.9c6.4,3.6,12.9,7.3,19.3,10.9c-4.1,6.7-10.4,11-17.1,14.7
	c-14.7,8-30.8,10.6-47.2,11.5c-8.9,0.5-17.8-0.4-26.7,0.2c-6.4,0.5-11.9-0.8-17.2-3.9c-5.8-3.4-15.3-0.1-18,6l0,0
	c-0.5,0.3-1,0.6-1.5,0.9l0,0c-0.6,0.2-1.1,0.4-1.7,0.6c-0.3-0.8-1.1-1.9-0.8-2.2c1.8-2.1,3.7-4.1,5.6-6.1c1.8-1.1,3.6-2.2,6.1-3.8
	c-7.5-0.2-11,1.4-13.3,5.9v0c-1,0.8-2.1,1.5-3.1,2.3v0c-0.5,0.3-0.9,0.6-1.4,1l0,0c-0.3,0.2-0.6,0.4-0.9,0.6l0,0
	c-0.5,0.3-1,0.6-1.5,0.8c-0.2,0.1-0.4,0.2-0.6,0.3c-0.4,0.1-0.7,0.2-1,0.4c-3.7-1.8-0.1-3.5,0.1-5.3l-0.1,0l1-0.8l10.6-7.5
	c-6.7,1.5-12.1,5.9-17.8,9.4c-2.7-0.7-1.8-2-0.4-3.1c4.1-3,8.3-5.9,12.4-8.8c1.1-0.8,2.2-1.6,3.4-2.3c1.6-0.5,3.3-1.1,5.2-1.8
	c-7.7-3.4-9.8-3.1-15.5,1.7c-1.4,1.1-2.8,2.1-4.2,3.2c-2.2-0.4-3.1-1.3-1.2-3.2c2.5-2.5,5-5.1,7.6-7.6c3.4-3.2,7.3-0.5,11-0.5
	C228.4,332.9,231.5,333.7,234.7,334.1L234.7,334.1z"/>
<path class="st22" d="M227.1,358.9c2.7-6.1,12.2-9.4,18-6c5.4,3.1,10.9,4.3,17.3,3.9c8.9-0.7,17.8,0.2,26.7-0.2
	c16.4-0.9,32.5-3.5,47.2-11.5c6.7-3.6,13-8,17.1-14.7c5.5,1.1,10.9,2.1,16.4,3.2c-0.9,1.9-1.9,3.8-2.8,5.7c-0.1,0.1-0.2,0.1-0.3,0.2
	c-5.9,11.6-17,14.4-28.3,16.1c-15.9,2.3-31.9,4.2-47.9,5.6c-8.7,0.8-17.5,0.2-26.2,0.2c-3.9,0-7.9,0.3-11.8-0.2
	c-2.2-0.3-4.6-1.6-6.4-3.1c-6.1-5.2-9.6-5.4-16.2-0.8C229.1,357.9,228.1,358.3,227.1,358.9L227.1,358.9z"/>
<path class="st21" d="M364.4,212.4c-1.4,7.4-2.9,14.9-4.2,22.3c-0.3,1.4-0.3,2.8-0.5,4.2c-4.5,4.6-8.6,9.6-13.5,13.5
	c-4.6,3.7-10.4,4.7-16.5,4.3c-3.8-0.2-5.7-2.4-5.5-5.6c0.2-3.4,1.6-6.6,2.4-10c9.1-0.2,16.1-5,22.2-10.9
	C354.5,224.8,359.2,218.4,364.4,212.4L364.4,212.4z"/>
<path class="st20" d="M364.4,212.4c-5.1,6-9.8,12.4-15.5,17.9c-6.1,5.9-13.1,10.7-22.2,10.9c-0.4-1.1-0.7-2.1-1-3.2
	c-0.6-4.9-1.1-9.8-1.7-14.7c8.8,0.1,16.5-3.6,23.8-7.9c6.7-3.9,12.9-8.6,19.4-12.9c-0.4,2.2-0.7,4.5-1.1,6.7
	c-0.3,0.6-0.6,1.1-0.9,1.7C364.8,211.4,364.6,211.9,364.4,212.4L364.4,212.4L364.4,212.4z"/>
<path class="st23" d="M279,301.4c-3.6,3.1-7.2,6.3-10.8,9.5c0.1-3.6,0.3-7.2,0.4-10.8c6.6-7.3,13.2-14.5,19.7-21.8
	c3.5-4,6.8-8.3,10.1-12.4h0c-1.5,3.7-2.9,7.4-4.4,11.1c-2.6,6.2-5.3,12.3-8,18.4C283.7,297.4,281.4,299.4,279,301.4L279,301.4z"/>
<path class="st14" d="M334.1,319.4c-1.6,1.7-3,4.1-5,4.9c-11.2,4.5-22.5,8.5-33.8,12.7c2.2-1.4,4.3-3,6.6-4.2
	c8.1-4.3,16.2-8.4,24.3-12.7c0.8-0.4,1.8-2.1,1.5-2.7c-1.5-3.3,0.1-6.1,1.4-8.8c4.3-9,8.9-17.9,13.9-26.7c-0.2,0.9-0.2,1.8-0.5,2.6
	c-3.1,9.2-6.2,18.5-9.6,27.7C332,315,331.7,317.3,334.1,319.4L334.1,319.4z"/>
<path class="st7" d="M279,301.4c2.3-2,4.7-4.1,7-6.1c-1,3.5-1.8,7.2-3,10.6c-3.3,9.4-6.9,18.7-10.3,28.1c0.7-4.2,1.4-8.4,2.2-12.6
	C276.2,314.8,277.7,308.1,279,301.4L279,301.4z"/>
<path class="st23" d="M298.4,265.9l0.3-0.3c0,0.1,0,0.2,0,0.2C298.6,265.8,298.5,265.8,298.4,265.9L298.4,265.9L298.4,265.9z"/>
<path class="st9" d="M365.9,209.2c0.4-2.2,0.7-4.5,1.1-6.7c1.5-2.2,3-4.4,3.9-5.7c4.4,0.7,8.1,1.3,11.8,1.9
	C377.1,202.1,371.5,205.7,365.9,209.2L365.9,209.2z"/>
<path class="st19" d="M312.2,188.5c-3.6,0-7.3,0.1-10.9,0c-3-0.1-3.9-2.6-3.9-4.8c0-0.8,2.9-2.1,4.5-2.2c4.7-0.3,8.4,1.7,10.7,5.7
	C312.4,187.5,312.3,188,312.2,188.5L312.2,188.5z"/>
<path class="st24" d="M298.2,176.9c2.5-4,4.8-7.7,7.1-11.4l1.8,0.7c-0.4,3.6,0,7.6-1.4,10.7C304.4,179.8,301.1,178.3,298.2,176.9
	L298.2,176.9z"/>
<path class="st9" d="M282.9,176.7c0.7-0.5,1.4-1.3,2.2-1.5c5.9-1,10-4.3,12.3-9.7c1.8-4.2,4.2-5.2,8.8-3.5c-3,0.3-5,1.6-6.3,4.6
	C296.9,173.7,290.7,177.1,282.9,176.7L282.9,176.7z"/>
<path class="st19" d="M305.3,202c6.5-3.5,15.6-3.6,21.1,0H305.3z"/>
<path class="st20" d="M379.3,180.9c0,0.1,0,0.2,0,0.2c-0.1,0.1-0.2,0.1-0.3,0.1l0-0.4L379.3,180.9L379.3,180.9z"/>
<path class="st25" d="M277.7,141.8c0.1-1.2,0.3-2.5,0.4-3.8c1.5-0.3,3-1.1,4.4-0.8c5.8,1,11.5,2.3,17.3,3.4c1.2,0.2,3.1,0.6,3.5,0
	c0.7-1,1-3,0.5-3.9c-1.1-1.8-2.6-3.6-4.4-4.4c-2.6-1.2-5.7-1.5-8.5-2.2c3.8-0.9,7.5-2.5,11.4-2.7c8.1-0.6,16.3-0.5,24.2,2
	c-2.1,0.7-4.5,1.1-6.4,2.2c-4.1,2.3-3.8,7.3,0.3,9.5c1.7,0.1,3.4,0.3,5.1,0.2c5-0.3,10-0.8,15-1.2c-7.8,0.7-15.1,3.2-21.8,7.3
	c-5,3-5,3-5.5,9.8c-2.8,0-5.6,0.1-8.4-0.1c-1-0.1-2.4-0.9-2.7-1.7c-4.2-10.4-13.2-12.6-23-13.6C278.4,141.7,278,141.8,277.7,141.8
	L277.7,141.8z"/>
<path class="st26" d="M341.9,145c1.5,0,3.1,0,4.6,0c1,0.2,2.1,0.4,3.1,0.5c1,0.2,2,0.3,3,0.5c6.5,1.4,6.9,2,6,8.8
	c-2.2,16.6-18.3,24-33.7,15.5c-2-3.6-4.4-7-5.9-10.8c-0.7-1.8,0.1-4.2,0.3-6.3c0.4,4,2.1,7.2,6,8.4c2,0.6,4.3,0.2,6.4,0.3
	c2.8,3.3,6.1,4.1,10.1,2.4c0.2,1.2,0.3,2.4,0.5,3.6c1.4-0.2,3-0.3,4.3-0.9c0.4-0.1,0.3-1.6,0.4-2.4c-1.3-0.2-2.7-0.3-4-0.5
	c-0.4,0-0.8,0-1.1,0c2.6-2.8,3.1-6.1,1.5-9.7c2.7-0.6,5.2-1.1,7.7-1.6c0-0.5-0.1-1-0.1-1.4h-14.1l-2.7-4.9
	C336.6,146.1,339.3,145.6,341.9,145L341.9,145z"/>
<path class="st26" d="M279.8,147.4c6.2-0.5,11.2,2.5,15.5,6.4c1.1,1,0.8,3.7,0.7,5.6c-0.1,5.4-2.4,9.4-7.6,11.3
	c-5.3,1.9-10.1,0.8-14-3.4c0.2-2,0.5-4,0.7-6c0-0.8-0.1-1.6-0.1-2.4l0.2,0.1c4.3,0,5.5-2.7,5.5-6.4c1.9,0.9,3.6,1.5,3.7,4.5
	c0,1.9,2.3,3.8,3.5,5.7c1.6-1.2,3.3-2.4,4.9-3.5l-0.5-0.7l3.4,0.4c-4.7-4.5-7.8-10.1-15-7.6L279.8,147.4L279.8,147.4z"/>
<path class="st9" d="M370.7,144.9c0.6,0.9,1.7,1.9,1.7,2.8c0,4.1-2.9,7.1-6.7,8.6c-1.2,0.5-2.4,2.4-2.7,3.8
	c-2.7,11.4-13,18.8-25.8,18.9c0.9-0.5,1.7-1.3,2.7-1.4c10.2-1.5,18.1-8.6,20.5-18.7c0.5-2.2,1-3.7,4-4c3.5-0.4,4.4-3.8,5.3-6.8
	C370.1,147,370.4,145.9,370.7,144.9L370.7,144.9z"/>
<path class="st9" d="M319.3,153.3c-0.1,2.1-1,4.5-0.3,6.3c1.5,3.8,3.9,7.2,5.9,10.8c-4.2,2.6-4.9-1.9-5.9-3.6
	c-1.7-2.9-2.3-6.5-3.2-9.8c-0.7-2.5-0.1-4.4,2.4-5.8c6.6-3.6,13.2-7.1,21-7c0.9,0,1.9,0.5,2.8,0.8c-2.6,0.6-5.2,1.1-7.8,1.6
	C329.1,148.9,324.2,151.1,319.3,153.3L319.3,153.3z"/>
<path class="st9" d="M273.3,166.5c-4.4-0.4-4.4-4.4-5.7-7.2c-0.8-1.5-0.7-3.5-1.1-5.2c-1.1-5.6,2.5-9.3,8.3-8.3
	c0.4,0.1,0.8,0.8,1.1,1.3c-2.1,0.7-4.1,1.4-6.2,2.1c0,3,0,6,0,8.9C270.9,160.9,272.1,163.7,273.3,166.5L273.3,166.5z"/>
<path class="st24" d="M280.7,152.5c0,3.7-1.2,6.4-5.5,6.4c0.5-3.9,1-7.8,1.4-11.6c1,0,2.1,0.1,3.1,0.1c0.3,1.3,0.7,2.7,1,4
	C280.8,151.8,280.7,152.2,280.7,152.5z"/>
<path class="st13" d="M276.6,147.3c-0.5,3.9-1,7.8-1.4,11.6l-0.2-0.1c-1.8-3.2-3.6-6.4-5.3-9.6c2.1-0.7,4.1-1.4,6.2-2.1
	C276.1,147.2,276.4,147.2,276.6,147.3L276.6,147.3z"/>
<path class="st7" d="M273.3,166.5c-1.2-2.8-2.4-5.6-3.6-8.4c1.8,1,3.6,2.1,5.4,3.1c-0.2,2-0.5,4-0.7,6
	C274.1,167,273.7,166.8,273.3,166.5z"/>
<path class="st9" d="M349.6,145.5l-3.1-0.5C347.5,145.2,348.5,145.4,349.6,145.5z"/>
<path class="st21" d="M364.3,212.4c0.2-0.5,0.5-1,0.7-1.5C364.8,211.4,364.6,211.9,364.3,212.4z"/>
<path class="st2" d="M124.7,351.1c0.1,0.2,0.1,0.5,0.2,0.8c-10.4,0-20.8,0-31.1,0c1.3-0.3,2.7-0.7,4-0.8
	C106.7,351.1,115.7,351.1,124.7,351.1z"/>
<path class="st18" d="M140.3,351.4c0.8,0,1.6,0,2.4,0C141.9,351.4,141.1,351.4,140.3,351.4z"/>
<path class="st18" d="M137.1,351.5c0.3,0,0.6,0,0.9,0C137.7,351.5,137.4,351.5,137.1,351.5z"/>
<path class="st22" d="M207.9,344.2c1.4-1.1,2.9-2.1,4.2-3.2c5.7-4.8,7.8-5.1,15.5-1.7c-1.9,0.6-3.6,1.2-5.2,1.8
	c-2.8-1-5.2-0.8-7.8,1.2c-1.8,1.5-4.4,1.9-6.6,2.8C207.9,344.8,207.9,344.5,207.9,344.2L207.9,344.2z"/>
<path class="st22" d="M207,355.4c5.7-3.5,11.1-7.9,17.8-9.4c-3.5,2.5-7,5-10.6,7.5c-0.3,0.3-0.7,0.6-1,0.8l0.1,0
	C211.1,354.6,209.1,355,207,355.4L207,355.4z"/>
<path class="st22" d="M221.6,354.1c2.4-4.5,5.9-6.2,13.3-5.9c-2.5,1.5-4.3,2.6-6.1,3.8c-1.1,0-2.2-0.1-3.2,0.2
	C224.2,352.6,222.9,353.4,221.6,354.1L221.6,354.1z"/>
<path class="st22" d="M218.5,356.4c1-0.8,2.1-1.5,3.1-2.3C220.6,354.9,219.5,355.7,218.5,356.4z"/>
<path class="st22" d="M217.1,357.4c0.5-0.3,0.9-0.6,1.4-1C218,356.8,217.6,357.1,217.1,357.4z"/>
<path class="st22" d="M214.7,358.9c0.5-0.3,1-0.6,1.5-0.9C215.7,358.4,215.2,358.6,214.7,358.9z"/>
<path class="st22" d="M225.6,359.8c0.5-0.3,1-0.6,1.5-0.9C226.6,359.2,226.1,359.5,225.6,359.8z"/>
<path class="st22" d="M224,360.3c0.6-0.2,1.1-0.4,1.7-0.6C225.1,359.9,224.5,360.1,224,360.3z"/>
<path class="st22" d="M216.2,358.1c0.3-0.2,0.6-0.4,0.9-0.6C216.8,357.6,216.5,357.9,216.2,358.1z"/>
<path class="st22" d="M213.1,359.5c0.3-0.1,0.7-0.2,1-0.4C213.8,359.3,213.5,359.4,213.1,359.5z"/>
<path class="st3" d="M320.2,141.1c-4.1-2.2-4.3-7.2-0.3-9.5c1.9-1.1,4.3-1.5,6.4-2.2c9-1.3,17.9-0.6,26.5,2.3
	c4.4,3.1,8.8,6.3,13.2,9.4c-3.9-1-7.8-2.3-11.8-3C342.6,135.9,331.2,137,320.2,141.1L320.2,141.1z"/>
<path class="st3" d="M290.7,130.1c2.9,0.7,5.9,1,8.5,2.2c1.8,0.8,3.4,2.7,4.4,4.4c0.6,0.9,0.2,2.9-0.5,3.9c-0.4,0.5-2.3,0.2-3.5,0
	c-5.8-1.1-11.5-2.4-17.3-3.4c-1.4-0.2-2.9,0.5-4.4,0.8c-1.2-0.5-2.4-1.1-3.5-1.6c0.6-1.1,1.1-2.2,1.9-3.1c0.7-0.9,1.7-1.5,2.5-2.2
	C282.9,130.7,286.8,130.4,290.7,130.1L290.7,130.1z"/>
<path class="st25" d="M366,141.1c-4.4-3.1-8.8-6.3-13.2-9.4c3.6-0.5,7.2-1.1,10.9-1.3c0.7-0.1,2,1.1,2.2,1.8c0.7,2.9,1.1,6,1.6,9
	l0,0c-0.2,0-0.5,0-0.7,0C366.5,141.1,366.2,141,366,141.1L366,141.1L366,141.1z"/>
<path class="st25" d="M367.4,141.1l0.3,0.2C367.7,141.2,367.6,141.1,367.4,141.1L367.4,141.1L367.4,141.1z"/>
<path class="st3" d="M365.9,141c0.3,0,0.5,0.1,0.8,0.1c-0.2,0.2-0.5,0.3-0.7,0.5L365.9,141L365.9,141z"/>
<path class="st13" d="M213.2,354.3c0.3-0.3,0.7-0.6,1-0.8C213.9,353.7,213.5,354,213.2,354.3z"/>
<path class="st24" d="M319.3,153.3c4.9-2.2,9.8-4.4,14.8-6.6c0.9,1.6,1.8,3.3,2.7,4.9c-0.1,0.1-0.2,0.3-0.3,0.4
	c-3.3,1.1-6.7,2.3-10,3.4l0.3,1.1h4.7c0.1,1.6,0.2,3.2,0.4,4.8c-0.1,0.2-0.1,0.5-0.1,0.7c-2.2-0.1-4.5,0.3-6.4-0.3
	C321.4,160.5,319.6,157.3,319.3,153.3L319.3,153.3z"/>
<path class="st13" d="M331.8,162c0-0.2,0-0.5,0.1-0.7c3.4-2.2,5.1-5.2,4.6-9.3c0.1-0.1,0.2-0.2,0.3-0.4c4.7,0,9.4,0,14.1,0
	c0,0.5,0.1,1,0.1,1.4c-2.5,0.5-4.9,1-7.7,1.6c1.7,3.6,1.1,6.9-1.5,9.7h0C337.9,166.1,334.5,165.3,331.8,162L331.8,162z"/>
<path class="st24" d="M341.9,164.3c0.4,0,0.8-0.1,1.1,0c1.3,0.1,2.7,0.3,4,0.5c-0.1,0.8,0,2.2-0.4,2.4c-1.3,0.5-2.9,0.6-4.3,0.9
	C342.2,166.8,342,165.6,341.9,164.3L341.9,164.3L341.9,164.3z"/>
<path class="st13" d="M280.7,152.5c0-0.4,0.1-0.7,0.1-1.1c7.2-2.6,10.3,3,15,7.6l-3.4-0.4l0.5,0.7c-1.6,1.2-3.3,2.4-4.9,3.5
	c-1.3-1.9-3.5-3.8-3.5-5.7C284.3,154.1,282.6,153.5,280.7,152.5L280.7,152.5z"/>
<path class="st22" d="M275.1,161.2c-1.8-1-3.6-2.1-5.4-3.1c0-3,0-6,0-8.9c1.8,3.2,3.6,6.4,5.3,9.6
	C275.1,159.6,275.1,160.4,275.1,161.2z"/>
<path class="st22" d="M336.4,151.9c0.5,4.1-1.2,7.1-4.6,9.3c-0.1-1.6-0.2-3.3-0.4-4.8h-4.7l-0.3-1.1
	C329.8,154.2,333.1,153.1,336.4,151.9L336.4,151.9z"/>
</svg>
